<svg xmlns="http://www.w3.org/2000/svg" xmlns:xlink="http://www.w3.org/1999/xlink" width="1080" zoomAndPan="magnify" viewBox="0 0 810 809.999993" height="1080" preserveAspectRatio="xMidYMid meet" version="1.0"><defs><filter x="0%" y="0%" width="100%" height="100%" id="b1d01ac63e"><feColorMatrix values="0 0 0 0 1 0 0 0 0 1 0 0 0 0 1 0 0 0 1 0" color-interpolation-filters="sRGB"/></filter><mask id="66064f1e8a"><g filter="url(#b1d01ac63e)"><rect x="-81" width="972" fill="#000000" y="-80.999999" height="971.999992" fill-opacity="0.5"/></g></mask><clipPath id="750a1cbe78"><path d="M 0.324219 1 L 589.824219 1 L 589.824219 680.5 L 0.324219 680.5 Z M 0.324219 1 " clip-rule="nonzero"/></clipPath><clipPath id="d60e702a43"><rect x="0" width="590" y="0" height="682"/></clipPath></defs><g mask="url(#66064f1e8a)"><g transform="matrix(1, 0, 0, 1, 110, 80)"><g clip-path="url(#d60e702a43)"><path fill="#000000" d="M 419.6875 454 C 418.949219 454 418.207031 453.964844 417.46875 453.890625 C 416.730469 453.816406 415.996094 453.710938 415.269531 453.566406 C 414.542969 453.421875 413.824219 453.238281 413.113281 453.023438 C 412.402344 452.808594 411.703125 452.558594 411.019531 452.277344 C 410.332031 451.992188 409.664062 451.675781 409.007812 451.324219 C 408.355469 450.976562 407.71875 450.59375 407.101562 450.183594 C 406.484375 449.769531 405.890625 449.328125 405.316406 448.859375 C 404.742188 448.386719 404.191406 447.890625 403.667969 447.367188 C 403.144531 446.839844 402.644531 446.292969 402.175781 445.71875 C 401.703125 445.144531 401.261719 444.550781 400.851562 443.933594 C 400.4375 443.316406 400.058594 442.679688 399.707031 442.027344 C 399.359375 441.371094 399.039062 440.703125 398.757812 440.019531 C 398.472656 439.332031 398.222656 438.636719 398.007812 437.925781 C 397.792969 437.214844 397.613281 436.496094 397.46875 435.769531 C 397.324219 435.042969 397.214844 434.308594 397.140625 433.570312 C 397.066406 432.832031 397.03125 432.09375 397.03125 431.351562 L 397.03125 408.699219 C 397.03125 407.214844 396.960938 405.734375 396.8125 404.261719 C 396.667969 402.785156 396.449219 401.316406 396.160156 399.863281 C 395.871094 398.40625 395.511719 396.96875 395.082031 395.550781 C 394.648438 394.128906 394.152344 392.734375 393.582031 391.363281 C 393.015625 389.992188 392.378906 388.652344 391.679688 387.34375 C 390.980469 386.039062 390.21875 384.765625 389.394531 383.53125 C 388.570312 382.300781 387.6875 381.109375 386.746094 379.960938 C 385.804688 378.816406 384.808594 377.71875 383.757812 376.667969 C 382.710938 375.617188 381.613281 374.625 380.464844 373.683594 C 379.316406 372.742188 378.125 371.859375 376.894531 371.035156 C 375.660156 370.210938 374.386719 369.449219 373.078125 368.75 C 371.769531 368.050781 370.429688 367.414062 369.058594 366.847656 C 367.6875 366.28125 366.292969 365.78125 364.871094 365.351562 C 363.449219 364.917969 362.011719 364.558594 360.558594 364.269531 C 359.101562 363.980469 357.636719 363.761719 356.160156 363.617188 C 354.683594 363.472656 353.203125 363.398438 351.71875 363.398438 C 350.972656 363.398438 350.238281 363.472656 349.507812 363.617188 C 348.777344 363.761719 348.070312 363.976562 347.382812 364.261719 C 346.695312 364.546875 346.042969 364.894531 345.421875 365.308594 C 344.804688 365.722656 344.230469 366.191406 343.707031 366.71875 C 343.179688 367.242188 342.710938 367.816406 342.296875 368.433594 C 341.882812 369.050781 341.535156 369.703125 341.25 370.390625 C 340.964844 371.078125 340.75 371.785156 340.605469 372.515625 C 340.460938 373.246094 340.386719 373.980469 340.386719 374.726562 C 340.386719 375.46875 340.460938 376.203125 340.605469 376.933594 C 340.75 377.664062 340.964844 378.371094 341.25 379.058594 C 341.535156 379.746094 341.882812 380.398438 342.296875 381.015625 C 342.710938 381.636719 343.179688 382.207031 343.707031 382.734375 C 344.230469 383.257812 344.804688 383.726562 345.421875 384.140625 C 346.042969 384.554688 346.695312 384.902344 347.382812 385.1875 C 348.070312 385.472656 348.777344 385.6875 349.507812 385.832031 C 350.238281 385.976562 350.972656 386.050781 351.71875 386.050781 C 352.460938 386.050781 353.199219 386.085938 353.9375 386.160156 C 354.675781 386.230469 355.410156 386.339844 356.136719 386.484375 C 356.863281 386.628906 357.585938 386.808594 358.292969 387.023438 C 359.003906 387.242188 359.703125 387.488281 360.386719 387.773438 C 361.074219 388.058594 361.742188 388.375 362.398438 388.722656 C 363.050781 389.074219 363.6875 389.453125 364.304688 389.867188 C 364.921875 390.277344 365.515625 390.71875 366.089844 391.191406 C 366.664062 391.660156 367.214844 392.160156 367.738281 392.683594 C 368.261719 393.207031 368.761719 393.757812 369.230469 394.332031 C 369.703125 394.90625 370.144531 395.5 370.554688 396.117188 C 370.96875 396.734375 371.347656 397.367188 371.699219 398.023438 C 372.050781 398.675781 372.367188 399.347656 372.648438 400.03125 C 372.933594 400.71875 373.183594 401.414062 373.398438 402.125 C 373.613281 402.835938 373.792969 403.554688 373.9375 404.28125 C 374.082031 405.007812 374.191406 405.742188 374.265625 406.480469 C 374.339844 407.21875 374.375 407.957031 374.375 408.699219 L 374.375 431.351562 C 374.371094 434.566406 374.710938 437.746094 375.386719 440.886719 C 376.066406 444.03125 377.066406 447.070312 378.394531 449.996094 C 379.71875 452.925781 381.339844 455.683594 383.253906 458.269531 C 385.167969 460.851562 387.335938 463.203125 389.753906 465.324219 C 387.335938 467.445312 385.167969 469.796875 383.253906 472.382812 C 381.339844 474.964844 379.71875 477.722656 378.394531 480.652344 C 377.066406 483.582031 376.066406 486.617188 375.386719 489.761719 C 374.710938 492.90625 374.371094 496.085938 374.375 499.300781 L 374.375 521.949219 C 374.375 522.691406 374.339844 523.433594 374.265625 524.171875 C 374.191406 524.910156 374.082031 525.640625 373.9375 526.367188 C 373.792969 527.097656 373.613281 527.816406 373.398438 528.523438 C 373.183594 529.234375 372.933594 529.933594 372.648438 530.617188 C 372.367188 531.304688 372.050781 531.972656 371.699219 532.628906 C 371.347656 533.28125 370.96875 533.917969 370.554688 534.535156 C 370.144531 535.152344 369.703125 535.746094 369.230469 536.320312 C 368.761719 536.890625 368.261719 537.441406 367.738281 537.964844 C 367.214844 538.492188 366.664062 538.988281 366.089844 539.457031 C 365.515625 539.929688 364.921875 540.371094 364.304688 540.78125 C 363.6875 541.195312 363.050781 541.574219 362.398438 541.925781 C 361.742188 542.273438 361.074219 542.59375 360.386719 542.875 C 359.703125 543.160156 359.003906 543.410156 358.292969 543.625 C 357.585938 543.839844 356.863281 544.019531 356.136719 544.164062 C 355.410156 544.308594 354.675781 544.417969 353.9375 544.492188 C 353.199219 544.5625 352.460938 544.601562 351.71875 544.601562 C 350.972656 544.601562 350.238281 544.671875 349.507812 544.816406 C 348.777344 544.960938 348.070312 545.175781 347.382812 545.460938 C 346.695312 545.746094 346.042969 546.09375 345.421875 546.507812 C 344.804688 546.921875 344.230469 547.390625 343.707031 547.917969 C 343.179688 548.441406 342.710938 549.015625 342.296875 549.632812 C 341.882812 550.25 341.535156 550.902344 341.25 551.589844 C 340.964844 552.277344 340.75 552.984375 340.605469 553.714844 C 340.460938 554.445312 340.386719 555.179688 340.386719 555.925781 C 340.386719 556.667969 340.460938 557.40625 340.605469 558.132812 C 340.75 558.863281 340.964844 559.570312 341.25 560.257812 C 341.535156 560.945312 341.882812 561.597656 342.296875 562.214844 C 342.710938 562.835938 343.179688 563.40625 343.707031 563.933594 C 344.230469 564.457031 344.804688 564.929688 345.421875 565.339844 C 346.042969 565.753906 346.695312 566.101562 347.382812 566.386719 C 348.070312 566.671875 348.777344 566.886719 349.507812 567.03125 C 350.238281 567.175781 350.972656 567.25 351.71875 567.25 C 353.203125 567.25 354.683594 567.175781 356.160156 567.03125 C 357.636719 566.886719 359.101562 566.667969 360.558594 566.378906 C 362.011719 566.089844 363.449219 565.730469 364.871094 565.300781 C 366.292969 564.867188 367.6875 564.371094 369.058594 563.800781 C 370.429688 563.234375 371.769531 562.601562 373.078125 561.902344 C 374.386719 561.203125 375.660156 560.441406 376.894531 559.617188 C 378.125 558.792969 379.316406 557.910156 380.464844 556.96875 C 381.613281 556.027344 382.710938 555.03125 383.757812 553.980469 C 384.808594 552.933594 385.804688 551.835938 386.746094 550.6875 C 387.6875 549.542969 388.570312 548.351562 389.394531 547.117188 C 390.21875 545.882812 390.980469 544.613281 391.679688 543.304688 C 392.378906 541.996094 393.015625 540.65625 393.582031 539.285156 C 394.152344 537.914062 394.648438 536.519531 395.082031 535.101562 C 395.511719 533.679688 395.871094 532.242188 396.160156 530.789062 C 396.449219 529.332031 396.667969 527.867188 396.8125 526.390625 C 396.960938 524.914062 397.03125 523.433594 397.03125 521.949219 L 397.03125 499.300781 C 397.03125 498.558594 397.066406 497.816406 397.140625 497.078125 C 397.214844 496.339844 397.324219 495.609375 397.46875 494.882812 C 397.613281 494.152344 397.792969 493.433594 398.007812 492.726562 C 398.222656 492.015625 398.472656 491.316406 398.757812 490.632812 C 399.039062 489.945312 399.359375 489.277344 399.707031 488.621094 C 400.058594 487.96875 400.4375 487.332031 400.851562 486.714844 C 401.261719 486.097656 401.703125 485.503906 402.175781 484.929688 C 402.644531 484.359375 403.144531 483.808594 403.667969 483.285156 C 404.191406 482.757812 404.742188 482.261719 405.316406 481.792969 C 405.890625 481.320312 406.484375 480.878906 407.101562 480.46875 C 407.71875 480.054688 408.355469 479.675781 409.007812 479.324219 C 409.664062 478.976562 410.332031 478.65625 411.019531 478.375 C 411.703125 478.089844 412.402344 477.839844 413.113281 477.625 C 413.824219 477.410156 414.542969 477.230469 415.269531 477.085938 C 415.996094 476.941406 416.730469 476.832031 417.46875 476.757812 C 418.207031 476.6875 418.949219 476.648438 419.6875 476.648438 C 420.433594 476.648438 421.167969 476.578125 421.898438 476.433594 C 422.628906 476.289062 423.335938 476.074219 424.023438 475.789062 C 424.710938 475.503906 425.363281 475.15625 425.984375 474.742188 C 426.601562 474.328125 427.175781 473.859375 427.699219 473.332031 C 428.226562 472.808594 428.695312 472.234375 429.109375 471.617188 C 429.523438 471 429.871094 470.347656 430.15625 469.660156 C 430.441406 468.972656 430.65625 468.261719 430.800781 467.535156 C 430.945312 466.804688 431.019531 466.070312 431.019531 465.324219 C 431.019531 464.582031 430.945312 463.84375 430.800781 463.117188 C 430.65625 462.386719 430.441406 461.679688 430.15625 460.992188 C 429.871094 460.304688 429.523438 459.652344 429.109375 459.03125 C 428.695312 458.414062 428.226562 457.84375 427.699219 457.316406 C 427.175781 456.792969 426.601562 456.320312 425.984375 455.910156 C 425.363281 455.496094 424.710938 455.148438 424.023438 454.863281 C 423.335938 454.578125 422.628906 454.363281 421.898438 454.21875 C 421.167969 454.074219 420.433594 454 419.6875 454 Z M 419.6875 454 " fill-opacity="1" fill-rule="nonzero"/><path fill="#000000" d="M 170.457031 408.699219 C 170.457031 407.957031 170.492188 407.21875 170.566406 406.480469 C 170.640625 405.742188 170.75 405.007812 170.894531 404.28125 C 171.039062 403.554688 171.21875 402.835938 171.433594 402.125 C 171.648438 401.414062 171.898438 400.71875 172.183594 400.03125 C 172.464844 399.347656 172.785156 398.675781 173.132812 398.023438 C 173.484375 397.367188 173.863281 396.734375 174.277344 396.117188 C 174.6875 395.5 175.128906 394.90625 175.601562 394.332031 C 176.070312 393.757812 176.570312 393.207031 177.09375 392.683594 C 177.617188 392.160156 178.167969 391.660156 178.742188 391.191406 C 179.316406 390.722656 179.910156 390.28125 180.527344 389.867188 C 181.144531 389.457031 181.78125 389.074219 182.433594 388.722656 C 183.089844 388.375 183.757812 388.058594 184.445312 387.773438 C 185.128906 387.492188 185.828125 387.242188 186.539062 387.023438 C 187.25 386.808594 187.96875 386.628906 188.695312 386.484375 C 189.421875 386.339844 190.15625 386.230469 190.894531 386.160156 C 191.632812 386.085938 192.375 386.050781 193.113281 386.050781 C 193.859375 386.050781 194.597656 385.976562 195.324219 385.832031 C 196.054688 385.6875 196.761719 385.472656 197.449219 385.1875 C 198.136719 384.902344 198.789062 384.554688 199.410156 384.140625 C 200.027344 383.726562 200.601562 383.257812 201.125 382.734375 C 201.652344 382.207031 202.121094 381.636719 202.535156 381.015625 C 202.949219 380.398438 203.296875 379.746094 203.582031 379.058594 C 203.867188 378.371094 204.082031 377.664062 204.226562 376.933594 C 204.371094 376.203125 204.445312 375.46875 204.445312 374.726562 C 204.445312 373.980469 204.371094 373.246094 204.226562 372.515625 C 204.082031 371.785156 203.867188 371.078125 203.582031 370.390625 C 203.296875 369.703125 202.949219 369.050781 202.535156 368.433594 C 202.121094 367.816406 201.652344 367.242188 201.125 366.71875 C 200.601562 366.191406 200.027344 365.722656 199.410156 365.308594 C 198.789062 364.894531 198.136719 364.546875 197.449219 364.261719 C 196.761719 363.976562 196.054688 363.761719 195.324219 363.617188 C 194.597656 363.472656 193.859375 363.398438 193.113281 363.398438 C 191.632812 363.398438 190.152344 363.472656 188.671875 363.617188 C 187.195312 363.761719 185.730469 363.980469 184.273438 364.269531 C 182.820312 364.558594 181.382812 364.921875 179.960938 365.351562 C 178.539062 365.78125 177.144531 366.28125 175.773438 366.847656 C 174.402344 367.414062 173.0625 368.050781 171.753906 368.75 C 170.445312 369.449219 169.171875 370.210938 167.941406 371.035156 C 166.707031 371.859375 165.515625 372.742188 164.367188 373.683594 C 163.21875 374.625 162.121094 375.617188 161.074219 376.667969 C 160.023438 377.71875 159.027344 378.816406 158.085938 379.960938 C 157.144531 381.109375 156.261719 382.300781 155.4375 383.53125 C 154.613281 384.765625 153.851562 386.039062 153.152344 387.347656 C 152.453125 388.652344 151.816406 389.992188 151.25 391.363281 C 150.683594 392.734375 150.183594 394.128906 149.75 395.550781 C 149.320312 396.96875 148.960938 398.40625 148.671875 399.863281 C 148.382812 401.316406 148.164062 402.785156 148.019531 404.261719 C 147.875 405.738281 147.800781 407.214844 147.800781 408.699219 L 147.800781 431.351562 C 147.800781 432.09375 147.765625 432.832031 147.691406 433.570312 C 147.617188 434.308594 147.507812 435.042969 147.363281 435.769531 C 147.21875 436.496094 147.039062 437.214844 146.824219 437.925781 C 146.609375 438.636719 146.359375 439.332031 146.074219 440.019531 C 145.792969 440.703125 145.476562 441.371094 145.125 442.027344 C 144.773438 442.679688 144.394531 443.316406 143.980469 443.933594 C 143.570312 444.550781 143.128906 445.144531 142.65625 445.71875 C 142.1875 446.292969 141.6875 446.839844 141.164062 447.367188 C 140.640625 447.890625 140.089844 448.386719 139.515625 448.859375 C 138.941406 449.328125 138.347656 449.769531 137.730469 450.183594 C 137.113281 450.59375 136.476562 450.976562 135.824219 451.324219 C 135.167969 451.675781 134.5 451.992188 133.8125 452.277344 C 133.128906 452.558594 132.429688 452.808594 131.71875 453.023438 C 131.011719 453.238281 130.289062 453.421875 129.5625 453.566406 C 128.835938 453.710938 128.101562 453.816406 127.363281 453.890625 C 126.625 453.964844 125.886719 454 125.144531 454 C 124.398438 454 123.664062 454.074219 122.933594 454.21875 C 122.203125 454.363281 121.496094 454.578125 120.808594 454.863281 C 120.121094 455.148438 119.46875 455.496094 118.847656 455.910156 C 118.230469 456.320312 117.660156 456.792969 117.132812 457.316406 C 116.605469 457.84375 116.136719 458.414062 115.722656 459.03125 C 115.308594 459.652344 114.960938 460.304688 114.675781 460.992188 C 114.390625 461.679688 114.175781 462.386719 114.03125 463.117188 C 113.886719 463.84375 113.8125 464.582031 113.8125 465.324219 C 113.8125 466.070312 113.886719 466.804688 114.03125 467.535156 C 114.175781 468.261719 114.390625 468.972656 114.675781 469.660156 C 114.960938 470.347656 115.308594 471 115.722656 471.617188 C 116.136719 472.234375 116.605469 472.808594 117.132812 473.332031 C 117.660156 473.859375 118.230469 474.328125 118.847656 474.742188 C 119.46875 475.15625 120.121094 475.503906 120.808594 475.789062 C 121.496094 476.074219 122.203125 476.289062 122.933594 476.433594 C 123.664062 476.578125 124.398438 476.648438 125.144531 476.648438 C 125.886719 476.648438 126.625 476.6875 127.363281 476.757812 C 128.101562 476.832031 128.835938 476.941406 129.5625 477.085938 C 130.289062 477.230469 131.011719 477.410156 131.71875 477.625 C 132.429688 477.839844 133.128906 478.089844 133.8125 478.375 C 134.5 478.65625 135.167969 478.976562 135.824219 479.324219 C 136.476562 479.675781 137.113281 480.054688 137.730469 480.46875 C 138.347656 480.878906 138.941406 481.320312 139.515625 481.792969 C 140.089844 482.261719 140.640625 482.757812 141.164062 483.285156 C 141.6875 483.808594 142.1875 484.359375 142.65625 484.929688 C 143.128906 485.503906 143.570312 486.097656 143.980469 486.714844 C 144.394531 487.332031 144.773438 487.96875 145.125 488.621094 C 145.476562 489.277344 145.792969 489.945312 146.074219 490.632812 C 146.359375 491.316406 146.609375 492.015625 146.824219 492.726562 C 147.039062 493.433594 147.21875 494.152344 147.363281 494.882812 C 147.507812 495.609375 147.617188 496.339844 147.691406 497.078125 C 147.765625 497.816406 147.800781 498.558594 147.800781 499.300781 L 147.800781 521.949219 C 147.800781 523.433594 147.875 524.914062 148.019531 526.390625 C 148.164062 527.867188 148.382812 529.332031 148.671875 530.789062 C 148.960938 532.242188 149.320312 533.679688 149.75 535.101562 C 150.183594 536.519531 150.683594 537.914062 151.25 539.285156 C 151.816406 540.65625 152.453125 541.996094 153.152344 543.304688 C 153.851562 544.613281 154.613281 545.882812 155.4375 547.117188 C 156.261719 548.351562 157.144531 549.542969 158.085938 550.6875 C 159.027344 551.835938 160.023438 552.933594 161.074219 553.980469 C 162.121094 555.03125 163.21875 556.027344 164.367188 556.96875 C 165.515625 557.910156 166.707031 558.792969 167.941406 559.617188 C 169.171875 560.441406 170.445312 561.203125 171.753906 561.902344 C 173.0625 562.601562 174.402344 563.234375 175.773438 563.800781 C 177.144531 564.371094 178.539062 564.867188 179.960938 565.300781 C 181.382812 565.730469 182.820312 566.089844 184.273438 566.378906 C 185.730469 566.667969 187.195312 566.886719 188.671875 567.03125 C 190.152344 567.175781 191.632812 567.25 193.113281 567.25 C 193.859375 567.25 194.597656 567.175781 195.324219 567.03125 C 196.054688 566.886719 196.761719 566.671875 197.449219 566.386719 C 198.136719 566.101562 198.789062 565.753906 199.410156 565.339844 C 200.027344 564.929688 200.601562 564.457031 201.125 563.933594 C 201.652344 563.40625 202.121094 562.835938 202.535156 562.214844 C 202.949219 561.597656 203.296875 560.945312 203.582031 560.257812 C 203.867188 559.570312 204.082031 558.863281 204.226562 558.132812 C 204.371094 557.40625 204.445312 556.667969 204.445312 555.925781 C 204.445312 555.179688 204.371094 554.445312 204.226562 553.714844 C 204.082031 552.984375 203.867188 552.277344 203.582031 551.589844 C 203.296875 550.902344 202.949219 550.25 202.535156 549.632812 C 202.121094 549.015625 201.652344 548.441406 201.125 547.917969 C 200.601562 547.390625 200.027344 546.921875 199.410156 546.507812 C 198.789062 546.09375 198.136719 545.746094 197.449219 545.460938 C 196.761719 545.175781 196.054688 544.960938 195.324219 544.816406 C 194.597656 544.671875 193.859375 544.601562 193.113281 544.601562 C 192.375 544.601562 191.632812 544.5625 190.894531 544.492188 C 190.15625 544.417969 189.421875 544.308594 188.695312 544.164062 C 187.96875 544.019531 187.25 543.839844 186.539062 543.625 C 185.828125 543.410156 185.128906 543.160156 184.445312 542.875 C 183.757812 542.59375 183.089844 542.273438 182.433594 541.925781 C 181.78125 541.574219 181.144531 541.195312 180.527344 540.78125 C 179.910156 540.371094 179.316406 539.929688 178.742188 539.457031 C 178.167969 538.988281 177.617188 538.492188 177.09375 537.964844 C 176.570312 537.441406 176.070312 536.890625 175.601562 536.320312 C 175.128906 535.746094 174.6875 535.152344 174.277344 534.535156 C 173.863281 533.917969 173.484375 533.28125 173.132812 532.628906 C 172.785156 531.972656 172.464844 531.304688 172.183594 530.617188 C 171.898438 529.933594 171.648438 529.234375 171.433594 528.523438 C 171.21875 527.816406 171.039062 527.097656 170.894531 526.367188 C 170.75 525.640625 170.640625 524.910156 170.566406 524.171875 C 170.492188 523.433594 170.457031 522.691406 170.457031 521.949219 L 170.457031 499.300781 C 170.460938 496.085938 170.121094 492.90625 169.445312 489.761719 C 168.765625 486.617188 167.765625 483.582031 166.4375 480.652344 C 165.113281 477.722656 163.492188 474.964844 161.578125 472.382812 C 159.664062 469.796875 157.496094 467.445312 155.078125 465.324219 C 157.496094 463.203125 159.664062 460.851562 161.578125 458.269531 C 163.492188 455.683594 165.113281 452.925781 166.4375 449.996094 C 167.765625 447.070312 168.765625 444.03125 169.445312 440.886719 C 170.121094 437.746094 170.460938 434.566406 170.457031 431.351562 Z M 170.457031 408.699219 " fill-opacity="1" fill-rule="nonzero"/><g clip-path="url(#750a1cbe78)"><path fill="#000000" d="M 578.292969 1 L 57.171875 1 C 56.425781 1 55.691406 1.074219 54.960938 1.21875 C 54.230469 1.363281 53.523438 1.578125 52.835938 1.863281 C 52.148438 2.148438 51.496094 2.496094 50.875 2.910156 C 50.257812 3.320312 49.6875 3.792969 49.160156 4.316406 C 48.632812 4.84375 48.164062 5.414062 47.75 6.03125 C 47.339844 6.652344 46.988281 7.304688 46.703125 7.992188 C 46.417969 8.679688 46.203125 9.386719 46.058594 10.117188 C 45.914062 10.84375 45.84375 11.582031 45.84375 12.324219 L 45.84375 46.300781 L 11.855469 46.300781 C 11.113281 46.300781 10.375 46.371094 9.644531 46.519531 C 8.917969 46.664062 8.207031 46.878906 7.519531 47.160156 C 6.832031 47.445312 6.179688 47.796875 5.5625 48.207031 C 4.945312 48.621094 4.371094 49.089844 3.84375 49.617188 C 3.320312 50.144531 2.847656 50.714844 2.4375 51.332031 C 2.023438 51.953125 1.675781 52.605469 1.390625 53.292969 C 1.105469 53.976562 0.890625 54.6875 0.746094 55.414062 C 0.601562 56.144531 0.527344 56.882812 0.527344 57.625 L 0.527344 669.175781 C 0.527344 669.917969 0.601562 670.65625 0.746094 671.382812 C 0.890625 672.113281 1.105469 672.820312 1.390625 673.507812 C 1.675781 674.195312 2.023438 674.847656 2.4375 675.464844 C 2.847656 676.085938 3.320312 676.65625 3.84375 677.183594 C 4.371094 677.707031 4.945312 678.179688 5.5625 678.589844 C 6.179688 679.003906 6.832031 679.351562 7.519531 679.636719 C 8.207031 679.921875 8.917969 680.136719 9.644531 680.28125 C 10.375 680.425781 11.113281 680.5 11.855469 680.5 L 532.976562 680.5 C 533.71875 680.5 534.457031 680.425781 535.1875 680.28125 C 535.914062 680.136719 536.625 679.921875 537.3125 679.636719 C 538 679.351562 538.652344 679.003906 539.269531 678.589844 C 539.890625 678.179688 540.460938 677.707031 540.988281 677.183594 C 541.511719 676.65625 541.984375 676.085938 542.394531 675.464844 C 542.808594 674.847656 543.15625 674.195312 543.441406 673.507812 C 543.726562 672.820312 543.941406 672.113281 544.085938 671.382812 C 544.234375 670.65625 544.304688 669.917969 544.304688 669.175781 L 544.304688 635.199219 L 578.292969 635.199219 C 579.035156 635.199219 579.773438 635.128906 580.5 634.980469 C 581.230469 634.835938 581.9375 634.621094 582.625 634.335938 C 583.3125 634.054688 583.964844 633.703125 584.585938 633.292969 C 585.203125 632.878906 585.777344 632.410156 586.300781 631.882812 C 586.828125 631.355469 587.296875 630.785156 587.710938 630.167969 C 588.125 629.546875 588.472656 628.894531 588.757812 628.207031 C 589.042969 627.523438 589.257812 626.8125 589.402344 626.085938 C 589.546875 625.355469 589.621094 624.617188 589.621094 623.875 L 589.621094 12.324219 C 589.621094 11.582031 589.546875 10.84375 589.402344 10.117188 C 589.257812 9.386719 589.042969 8.679688 588.757812 7.992188 C 588.472656 7.304688 588.125 6.652344 587.710938 6.03125 C 587.296875 5.414062 586.828125 4.84375 586.300781 4.316406 C 585.777344 3.792969 585.203125 3.320312 584.585938 2.910156 C 583.964844 2.496094 583.3125 2.148438 582.625 1.863281 C 581.9375 1.578125 581.230469 1.363281 580.5 1.21875 C 579.773438 1.074219 579.035156 1 578.292969 1 Z M 57.171875 148.226562 C 57.171875 146.371094 57.261719 144.519531 57.445312 142.675781 C 57.625 140.828125 57.898438 138.996094 58.257812 137.179688 C 58.621094 135.359375 59.070312 133.5625 59.609375 131.789062 C 60.148438 130.011719 60.773438 128.269531 61.480469 126.554688 C 62.191406 124.84375 62.984375 123.167969 63.859375 121.53125 C 64.734375 119.898438 65.6875 118.308594 66.71875 116.765625 C 67.746094 115.222656 68.851562 113.734375 70.027344 112.300781 C 71.203125 110.867188 72.449219 109.496094 73.761719 108.183594 C 75.074219 106.875 76.445312 105.628906 77.878906 104.453125 C 79.3125 103.277344 80.800781 102.171875 82.34375 101.144531 C 83.886719 100.113281 85.476562 99.160156 87.113281 98.285156 C 88.75 97.410156 90.421875 96.621094 92.136719 95.910156 C 93.851562 95.199219 95.597656 94.578125 97.371094 94.039062 C 99.148438 93.5 100.945312 93.050781 102.761719 92.6875 C 104.582031 92.328125 106.414062 92.054688 108.261719 91.871094 C 110.109375 91.691406 111.960938 91.601562 113.8125 91.601562 L 136.472656 91.601562 C 137.214844 91.601562 137.953125 91.671875 138.683594 91.816406 C 139.410156 91.960938 140.121094 92.175781 140.808594 92.460938 C 141.492188 92.746094 142.148438 93.09375 142.765625 93.507812 C 143.382812 93.921875 143.957031 94.390625 144.480469 94.917969 C 145.007812 95.441406 145.476562 96.015625 145.890625 96.632812 C 146.304688 97.25 146.652344 97.902344 146.9375 98.589844 C 147.222656 99.277344 147.4375 99.984375 147.582031 100.714844 C 147.726562 101.445312 147.800781 102.179688 147.800781 102.925781 C 147.800781 103.667969 147.726562 104.40625 147.582031 105.132812 C 147.4375 105.863281 147.222656 106.570312 146.9375 107.257812 C 146.652344 107.945312 146.304688 108.597656 145.890625 109.21875 C 145.476562 109.835938 145.007812 110.40625 144.480469 110.933594 C 143.957031 111.457031 143.382812 111.929688 142.765625 112.339844 C 142.148438 112.753906 141.492188 113.101562 140.808594 113.386719 C 140.121094 113.671875 139.410156 113.886719 138.683594 114.03125 C 137.953125 114.175781 137.214844 114.25 136.472656 114.25 L 113.8125 114.25 C 112.703125 114.253906 111.59375 114.3125 110.484375 114.421875 C 109.378906 114.535156 108.28125 114.699219 107.191406 114.917969 C 106.101562 115.136719 105.023438 115.410156 103.960938 115.734375 C 102.894531 116.058594 101.851562 116.4375 100.824219 116.863281 C 99.796875 117.289062 98.792969 117.765625 97.8125 118.289062 C 96.832031 118.816406 95.878906 119.386719 94.957031 120.007812 C 94.03125 120.625 93.140625 121.285156 92.28125 121.992188 C 91.421875 122.699219 90.597656 123.445312 89.8125 124.230469 C 89.023438 125.015625 88.277344 125.839844 87.574219 126.699219 C 86.867188 127.558594 86.203125 128.449219 85.585938 129.371094 C 84.96875 130.296875 84.394531 131.25 83.871094 132.230469 C 83.34375 133.207031 82.867188 134.210938 82.441406 135.238281 C 82.015625 136.265625 81.636719 137.308594 81.3125 138.375 C 80.988281 139.4375 80.714844 140.511719 80.496094 141.605469 C 80.277344 142.695312 80.113281 143.792969 80 144.898438 C 79.890625 146.003906 79.832031 147.113281 79.828125 148.226562 L 79.828125 170.875 C 79.832031 171.988281 79.890625 173.097656 80 174.203125 C 80.113281 175.308594 80.277344 176.40625 80.496094 177.496094 C 80.714844 178.585938 80.988281 179.664062 81.3125 180.726562 C 81.636719 181.789062 82.015625 182.835938 82.441406 183.863281 C 82.867188 184.886719 83.34375 185.890625 83.871094 186.871094 C 84.394531 187.851562 84.96875 188.804688 85.585938 189.726562 C 86.203125 190.652344 86.867188 191.542969 87.574219 192.402344 C 88.277344 193.261719 89.023438 194.082031 89.8125 194.871094 C 90.597656 195.65625 91.421875 196.402344 92.28125 197.109375 C 93.140625 197.8125 94.03125 198.476562 94.957031 199.09375 C 95.878906 199.710938 96.832031 200.285156 97.8125 200.808594 C 98.792969 201.335938 99.796875 201.808594 100.824219 202.238281 C 101.851562 202.664062 102.894531 203.039062 103.960938 203.363281 C 105.023438 203.691406 106.101562 203.960938 107.191406 204.179688 C 108.28125 204.398438 109.378906 204.566406 110.484375 204.675781 C 111.59375 204.789062 112.703125 204.847656 113.8125 204.851562 L 136.472656 204.851562 C 137.214844 204.851562 137.953125 204.921875 138.683594 205.066406 C 139.410156 205.210938 140.121094 205.425781 140.808594 205.710938 C 141.492188 205.996094 142.148438 206.34375 142.765625 206.757812 C 143.382812 207.171875 143.957031 207.640625 144.480469 208.167969 C 145.007812 208.691406 145.476562 209.265625 145.890625 209.882812 C 146.304688 210.5 146.652344 211.152344 146.9375 211.839844 C 147.222656 212.527344 147.4375 213.234375 147.582031 213.964844 C 147.726562 214.695312 147.800781 215.429688 147.800781 216.175781 C 147.800781 216.917969 147.726562 217.65625 147.582031 218.382812 C 147.4375 219.113281 147.222656 219.820312 146.9375 220.507812 C 146.652344 221.195312 146.304688 221.847656 145.890625 222.46875 C 145.476562 223.085938 145.007812 223.65625 144.480469 224.183594 C 143.957031 224.707031 143.382812 225.179688 142.765625 225.589844 C 142.148438 226.003906 141.492188 226.351562 140.808594 226.636719 C 140.121094 226.921875 139.410156 227.136719 138.683594 227.28125 C 137.953125 227.425781 137.214844 227.5 136.472656 227.5 L 113.8125 227.5 C 111.960938 227.5 110.109375 227.410156 108.261719 227.226562 C 106.414062 227.046875 104.582031 226.773438 102.761719 226.410156 C 100.945312 226.050781 99.148438 225.601562 97.371094 225.0625 C 95.597656 224.523438 93.851562 223.898438 92.136719 223.191406 C 90.421875 222.480469 88.75 221.6875 87.113281 220.8125 C 85.476562 219.941406 83.886719 218.988281 82.34375 217.957031 C 80.800781 216.925781 79.3125 215.824219 77.878906 214.648438 C 76.445312 213.46875 75.074219 212.226562 73.761719 210.914062 C 72.449219 209.605469 71.203125 208.230469 70.027344 206.796875 C 68.851562 205.363281 67.746094 203.875 66.714844 202.335938 C 65.6875 200.792969 64.734375 199.203125 63.859375 197.566406 C 62.984375 195.933594 62.191406 194.257812 61.480469 192.542969 C 60.773438 190.832031 60.148438 189.085938 59.609375 187.3125 C 59.070312 185.539062 58.621094 183.742188 58.257812 181.921875 C 57.898438 180.101562 57.625 178.269531 57.445312 176.425781 C 57.261719 174.578125 57.171875 172.730469 57.171875 170.875 Z M 521.648438 657.851562 L 23.183594 657.851562 L 23.183594 272.800781 L 521.648438 272.800781 Z M 221.4375 170.875 L 210.109375 170.875 C 208.808594 170.875 207.515625 170.8125 206.222656 170.683594 C 204.929688 170.558594 203.644531 170.367188 202.371094 170.113281 C 201.097656 169.859375 199.839844 169.546875 198.597656 169.167969 C 197.355469 168.792969 196.132812 168.355469 194.933594 167.859375 C 193.734375 167.359375 192.5625 166.804688 191.417969 166.195312 C 190.273438 165.582031 189.160156 164.917969 188.078125 164.195312 C 187 163.472656 185.957031 162.703125 184.953125 161.878906 C 183.949219 161.054688 182.988281 160.183594 182.070312 159.265625 C 181.152344 158.347656 180.28125 157.386719 179.457031 156.382812 C 178.632812 155.378906 177.863281 154.339844 177.140625 153.257812 C 176.417969 152.179688 175.75 151.066406 175.140625 149.921875 C 174.527344 148.777344 173.972656 147.605469 173.476562 146.40625 C 172.980469 145.207031 172.542969 143.984375 172.164062 142.742188 C 171.789062 141.5 171.472656 140.242188 171.21875 138.96875 C 170.964844 137.695312 170.777344 136.414062 170.648438 135.121094 C 170.519531 133.832031 170.457031 132.535156 170.457031 131.238281 C 170.457031 129.9375 170.519531 128.644531 170.648438 127.351562 C 170.777344 126.058594 170.964844 124.777344 171.21875 123.503906 C 171.472656 122.230469 171.789062 120.972656 172.164062 119.730469 C 172.542969 118.488281 172.980469 117.269531 173.476562 116.070312 C 173.972656 114.871094 174.527344 113.699219 175.140625 112.550781 C 175.75 111.40625 176.417969 110.296875 177.140625 109.214844 C 177.863281 108.136719 178.632812 107.09375 179.457031 106.089844 C 180.28125 105.089844 181.152344 104.128906 182.070312 103.210938 C 182.988281 102.292969 183.949219 101.421875 184.953125 100.597656 C 185.957031 99.773438 187 99 188.078125 98.28125 C 189.160156 97.558594 190.273438 96.890625 191.417969 96.28125 C 192.5625 95.667969 193.734375 95.113281 194.933594 94.617188 C 196.132812 94.121094 197.355469 93.683594 198.597656 93.308594 C 199.839844 92.929688 201.097656 92.613281 202.371094 92.363281 C 203.644531 92.109375 204.929688 91.917969 206.222656 91.789062 C 207.515625 91.664062 208.808594 91.601562 210.109375 91.601562 L 227.101562 91.601562 C 228.214844 91.601562 229.324219 91.660156 230.429688 91.773438 C 231.535156 91.882812 232.632812 92.050781 233.726562 92.269531 C 234.816406 92.488281 235.890625 92.761719 236.957031 93.085938 C 238.019531 93.410156 239.066406 93.785156 240.09375 94.210938 C 241.117188 94.640625 242.121094 95.117188 243.101562 95.640625 C 244.082031 96.164062 245.035156 96.738281 245.960938 97.355469 C 246.882812 97.972656 247.777344 98.636719 248.636719 99.34375 C 249.496094 100.046875 250.316406 100.792969 251.105469 101.578125 C 251.890625 102.367188 252.636719 103.1875 253.34375 104.046875 C 254.046875 104.90625 254.710938 105.800781 255.328125 106.722656 C 255.949219 107.648438 256.519531 108.597656 257.046875 109.578125 C 257.570312 110.558594 258.046875 111.5625 258.472656 112.589844 C 258.902344 113.617188 259.277344 114.660156 259.601562 115.722656 C 259.925781 116.785156 260.199219 117.863281 260.417969 118.953125 C 260.636719 120.042969 260.804688 121.140625 260.914062 122.246094 C 261.027344 123.355469 261.085938 124.464844 261.085938 125.574219 C 261.085938 126.320312 261.015625 127.054688 260.871094 127.785156 C 260.722656 128.515625 260.507812 129.222656 260.226562 129.910156 C 259.941406 130.597656 259.589844 131.25 259.179688 131.867188 C 258.765625 132.484375 258.296875 133.058594 257.769531 133.582031 C 257.242188 134.109375 256.671875 134.578125 256.050781 134.992188 C 255.433594 135.40625 254.78125 135.753906 254.09375 136.039062 C 253.40625 136.324219 252.699219 136.539062 251.96875 136.683594 C 251.238281 136.828125 250.503906 136.898438 249.757812 136.898438 C 249.015625 136.898438 248.277344 136.828125 247.546875 136.683594 C 246.820312 136.539062 246.109375 136.324219 245.421875 136.039062 C 244.734375 135.753906 244.082031 135.40625 243.464844 134.992188 C 242.847656 134.578125 242.273438 134.109375 241.75 133.582031 C 241.222656 133.058594 240.753906 132.484375 240.339844 131.867188 C 239.925781 131.25 239.578125 130.597656 239.292969 129.910156 C 239.007812 129.222656 238.792969 128.515625 238.648438 127.785156 C 238.503906 127.054688 238.429688 126.320312 238.429688 125.574219 C 238.429688 124.832031 238.355469 124.09375 238.210938 123.367188 C 238.066406 122.636719 237.851562 121.929688 237.566406 121.242188 C 237.28125 120.554688 236.933594 119.902344 236.519531 119.28125 C 236.109375 118.664062 235.636719 118.09375 235.113281 117.566406 C 234.585938 117.042969 234.011719 116.570312 233.394531 116.160156 C 232.777344 115.746094 232.125 115.398438 231.4375 115.113281 C 230.75 114.828125 230.039062 114.613281 229.3125 114.46875 C 228.582031 114.324219 227.84375 114.25 227.101562 114.25 L 210.109375 114.25 C 209.550781 114.25 208.996094 114.277344 208.441406 114.332031 C 207.890625 114.386719 207.339844 114.46875 206.792969 114.578125 C 206.246094 114.683594 205.707031 114.820312 205.175781 114.980469 C 204.644531 115.144531 204.121094 115.332031 203.605469 115.542969 C 203.089844 115.757812 202.589844 115.992188 202.097656 116.257812 C 201.605469 116.519531 201.128906 116.804688 200.667969 117.113281 C 200.203125 117.421875 199.757812 117.753906 199.328125 118.105469 C 198.898438 118.457031 198.484375 118.832031 198.09375 119.226562 C 197.699219 119.617188 197.324219 120.03125 196.972656 120.460938 C 196.621094 120.890625 196.289062 121.335938 195.980469 121.800781 C 195.667969 122.261719 195.382812 122.738281 195.121094 123.230469 C 194.859375 123.71875 194.621094 124.222656 194.410156 124.738281 C 194.195312 125.25 194.007812 125.773438 193.847656 126.304688 C 193.683594 126.839844 193.550781 127.378906 193.441406 127.921875 C 193.332031 128.46875 193.25 129.019531 193.195312 129.574219 C 193.140625 130.125 193.113281 130.679688 193.113281 131.238281 C 193.113281 131.792969 193.140625 132.347656 193.195312 132.902344 C 193.25 133.457031 193.332031 134.007812 193.441406 134.550781 C 193.550781 135.097656 193.683594 135.636719 193.847656 136.167969 C 194.007812 136.699219 194.195312 137.222656 194.410156 137.738281 C 194.621094 138.253906 194.859375 138.753906 195.121094 139.246094 C 195.382812 139.734375 195.667969 140.210938 195.980469 140.675781 C 196.289062 141.136719 196.621094 141.585938 196.972656 142.015625 C 197.324219 142.445312 197.699219 142.855469 198.09375 143.25 C 198.484375 143.644531 198.898438 144.015625 199.328125 144.367188 C 199.757812 144.722656 200.203125 145.054688 200.667969 145.363281 C 201.128906 145.671875 201.605469 145.957031 202.097656 146.21875 C 202.589844 146.480469 203.089844 146.71875 203.605469 146.933594 C 204.121094 147.144531 204.644531 147.332031 205.175781 147.492188 C 205.707031 147.65625 206.246094 147.789062 206.792969 147.898438 C 207.339844 148.007812 207.890625 148.089844 208.441406 148.144531 C 208.996094 148.199219 209.550781 148.226562 210.109375 148.226562 L 221.4375 148.226562 C 222.734375 148.226562 224.03125 148.289062 225.324219 148.414062 C 226.617188 148.542969 227.898438 148.734375 229.171875 148.988281 C 230.445312 149.238281 231.703125 149.554688 232.945312 149.933594 C 234.191406 150.308594 235.410156 150.746094 236.609375 151.242188 C 237.808594 151.738281 238.984375 152.292969 240.128906 152.90625 C 241.273438 153.515625 242.386719 154.183594 243.464844 154.90625 C 244.546875 155.625 245.585938 156.398438 246.589844 157.222656 C 247.59375 158.046875 248.554688 158.917969 249.472656 159.835938 C 250.390625 160.753906 251.261719 161.714844 252.085938 162.714844 C 252.910156 163.71875 253.683594 164.761719 254.40625 165.839844 C 255.125 166.921875 255.792969 168.03125 256.40625 169.175781 C 257.019531 170.324219 257.570312 171.496094 258.070312 172.695312 C 258.566406 173.894531 259.003906 175.113281 259.378906 176.355469 C 259.757812 177.597656 260.070312 178.855469 260.324219 180.128906 C 260.578125 181.402344 260.769531 182.683594 260.894531 183.976562 C 261.023438 185.269531 261.085938 186.5625 261.085938 187.863281 C 261.085938 189.160156 261.023438 190.457031 260.894531 191.746094 C 260.769531 193.039062 260.578125 194.320312 260.324219 195.59375 C 260.070312 196.867188 259.757812 198.125 259.378906 199.367188 C 259.003906 200.609375 258.566406 201.832031 258.070312 203.03125 C 257.570312 204.230469 257.019531 205.402344 256.40625 206.546875 C 255.792969 207.691406 255.125 208.804688 254.40625 209.882812 C 253.683594 210.964844 252.910156 212.003906 252.085938 213.007812 C 251.261719 214.011719 250.390625 214.972656 249.472656 215.890625 C 248.554688 216.808594 247.59375 217.679688 246.589844 218.503906 C 245.585938 219.328125 244.546875 220.097656 243.464844 220.820312 C 242.386719 221.542969 241.273438 222.207031 240.128906 222.820312 C 238.984375 223.429688 237.808594 223.984375 236.609375 224.484375 C 235.410156 224.980469 234.191406 225.417969 232.945312 225.792969 C 231.703125 226.171875 230.445312 226.484375 229.171875 226.738281 C 227.898438 226.992188 226.617188 227.183594 225.324219 227.308594 C 224.03125 227.4375 222.734375 227.5 221.4375 227.5 L 204.445312 227.5 C 203.332031 227.496094 202.222656 227.4375 201.117188 227.328125 C 200.007812 227.214844 198.910156 227.050781 197.820312 226.832031 C 196.730469 226.613281 195.652344 226.339844 194.589844 226.015625 C 193.527344 225.691406 192.480469 225.3125 191.453125 224.886719 C 190.425781 224.460938 189.421875 223.984375 188.441406 223.460938 C 187.460938 222.933594 186.511719 222.363281 185.585938 221.742188 C 184.660156 221.125 183.769531 220.464844 182.910156 219.757812 C 182.050781 219.050781 181.226562 218.304688 180.441406 217.519531 C 179.65625 216.734375 178.910156 215.910156 178.203125 215.050781 C 177.496094 214.191406 176.835938 213.300781 176.214844 212.378906 C 175.597656 211.453125 175.023438 210.5 174.5 209.519531 C 173.972656 208.542969 173.5 207.539062 173.070312 206.511719 C 172.644531 205.484375 172.269531 204.441406 171.941406 203.375 C 171.617188 202.3125 171.347656 201.238281 171.128906 200.144531 C 170.90625 199.054688 170.742188 197.957031 170.628906 196.851562 C 170.519531 195.746094 170.460938 194.636719 170.457031 193.523438 C 170.457031 192.78125 170.53125 192.042969 170.675781 191.316406 C 170.820312 190.585938 171.035156 189.878906 171.320312 189.191406 C 171.605469 188.503906 171.953125 187.851562 172.367188 187.234375 C 172.78125 186.613281 173.25 186.042969 173.777344 185.515625 C 174.300781 184.992188 174.875 184.523438 175.492188 184.109375 C 176.109375 183.695312 176.765625 183.347656 177.449219 183.0625 C 178.136719 182.777344 178.847656 182.5625 179.578125 182.417969 C 180.304688 182.273438 181.042969 182.199219 181.785156 182.199219 C 182.53125 182.199219 183.265625 182.273438 183.996094 182.417969 C 184.726562 182.5625 185.433594 182.777344 186.121094 183.0625 C 186.808594 183.347656 187.460938 183.695312 188.082031 184.109375 C 188.699219 184.523438 189.269531 184.992188 189.796875 185.515625 C 190.324219 186.042969 190.792969 186.613281 191.207031 187.234375 C 191.621094 187.851562 191.96875 188.503906 192.253906 189.191406 C 192.539062 189.878906 192.753906 190.585938 192.898438 191.316406 C 193.042969 192.042969 193.113281 192.78125 193.113281 193.523438 C 193.113281 194.269531 193.1875 195.003906 193.332031 195.734375 C 193.476562 196.464844 193.691406 197.171875 193.976562 197.859375 C 194.261719 198.546875 194.609375 199.199219 195.023438 199.816406 C 195.4375 200.433594 195.90625 201.007812 196.433594 201.53125 C 196.960938 202.058594 197.53125 202.527344 198.148438 202.941406 C 198.769531 203.355469 199.421875 203.703125 200.109375 203.988281 C 200.796875 204.273438 201.503906 204.488281 202.234375 204.632812 C 202.964844 204.777344 203.699219 204.851562 204.445312 204.851562 L 221.4375 204.851562 C 221.992188 204.851562 222.546875 204.824219 223.101562 204.769531 C 223.65625 204.714844 224.207031 204.632812 224.753906 204.523438 C 225.296875 204.414062 225.835938 204.28125 226.371094 204.117188 C 226.902344 203.957031 227.425781 203.769531 227.941406 203.558594 C 228.453125 203.34375 228.957031 203.105469 229.449219 202.84375 C 229.9375 202.582031 230.414062 202.296875 230.878906 201.988281 C 231.339844 201.679688 231.785156 201.347656 232.21875 200.992188 C 232.648438 200.640625 233.058594 200.269531 233.453125 199.875 C 233.847656 199.480469 234.21875 199.070312 234.574219 198.640625 C 234.925781 198.210938 235.257812 197.761719 235.566406 197.300781 C 235.875 196.835938 236.160156 196.359375 236.421875 195.871094 C 236.6875 195.378906 236.921875 194.878906 237.136719 194.363281 C 237.347656 193.847656 237.535156 193.324219 237.699219 192.792969 C 237.859375 192.261719 237.996094 191.722656 238.101562 191.175781 C 238.210938 190.632812 238.292969 190.082031 238.347656 189.527344 C 238.402344 188.972656 238.429688 188.417969 238.429688 187.863281 C 238.429688 187.304688 238.402344 186.75 238.347656 186.199219 C 238.292969 185.644531 238.210938 185.09375 238.101562 184.546875 C 237.996094 184.003906 237.859375 183.464844 237.699219 182.929688 C 237.535156 182.398438 237.347656 181.875 237.136719 181.363281 C 236.921875 180.847656 236.6875 180.34375 236.421875 179.855469 C 236.160156 179.363281 235.875 178.886719 235.566406 178.425781 C 235.257812 177.960938 234.925781 177.515625 234.574219 177.085938 C 234.21875 176.65625 233.847656 176.242188 233.453125 175.851562 C 233.058594 175.457031 232.648438 175.082031 232.21875 174.730469 C 231.785156 174.378906 231.339844 174.046875 230.878906 173.738281 C 230.414062 173.429688 229.9375 173.144531 229.449219 172.882812 C 228.957031 172.617188 228.453125 172.382812 227.941406 172.167969 C 227.425781 171.957031 226.902344 171.769531 226.371094 171.605469 C 225.835938 171.445312 225.296875 171.308594 224.753906 171.203125 C 224.207031 171.09375 223.65625 171.011719 223.101562 170.957031 C 222.546875 170.902344 221.992188 170.875 221.4375 170.875 Z M 334.722656 170.875 L 323.394531 170.875 C 322.097656 170.875 320.800781 170.8125 319.507812 170.683594 C 318.214844 170.558594 316.933594 170.367188 315.660156 170.113281 C 314.386719 169.859375 313.128906 169.546875 311.886719 169.167969 C 310.644531 168.792969 309.421875 168.355469 308.222656 167.859375 C 307.023438 167.359375 305.847656 166.804688 304.703125 166.195312 C 303.558594 165.582031 302.445312 164.917969 301.367188 164.195312 C 300.285156 163.472656 299.246094 162.703125 298.242188 161.878906 C 297.238281 161.054688 296.277344 160.183594 295.359375 159.265625 C 294.441406 158.347656 293.570312 157.386719 292.746094 156.382812 C 291.921875 155.378906 291.148438 154.339844 290.425781 153.257812 C 289.707031 152.179688 289.039062 151.066406 288.425781 149.921875 C 287.816406 148.777344 287.261719 147.605469 286.761719 146.40625 C 286.265625 145.207031 285.828125 143.984375 285.453125 142.742188 C 285.074219 141.5 284.761719 140.242188 284.507812 138.96875 C 284.253906 137.695312 284.0625 136.414062 283.9375 135.121094 C 283.808594 133.832031 283.746094 132.535156 283.746094 131.238281 C 283.746094 129.9375 283.808594 128.644531 283.9375 127.351562 C 284.0625 126.058594 284.253906 124.777344 284.507812 123.503906 C 284.761719 122.230469 285.074219 120.972656 285.453125 119.730469 C 285.828125 118.488281 286.265625 117.269531 286.761719 116.070312 C 287.261719 114.871094 287.816406 113.699219 288.425781 112.550781 C 289.039062 111.40625 289.707031 110.296875 290.425781 109.214844 C 291.148438 108.136719 291.921875 107.09375 292.746094 106.089844 C 293.570312 105.089844 294.441406 104.128906 295.359375 103.210938 C 296.277344 102.292969 297.238281 101.421875 298.242188 100.597656 C 299.246094 99.773438 300.285156 99 301.367188 98.28125 C 302.445312 97.558594 303.558594 96.890625 304.703125 96.28125 C 305.847656 95.667969 307.023438 95.113281 308.222656 94.617188 C 309.421875 94.121094 310.644531 93.683594 311.886719 93.308594 C 313.128906 92.929688 314.386719 92.613281 315.660156 92.363281 C 316.933594 92.109375 318.214844 91.917969 319.507812 91.789062 C 320.800781 91.664062 322.097656 91.601562 323.394531 91.601562 L 340.386719 91.601562 C 341.5 91.601562 342.609375 91.660156 343.714844 91.773438 C 344.824219 91.882812 345.921875 92.050781 347.011719 92.269531 C 348.101562 92.488281 349.179688 92.761719 350.242188 93.085938 C 351.308594 93.410156 352.351562 93.785156 353.378906 94.210938 C 354.40625 94.640625 355.410156 95.117188 356.390625 95.640625 C 357.371094 96.164062 358.324219 96.738281 359.246094 97.355469 C 360.171875 97.972656 361.0625 98.636719 361.921875 99.34375 C 362.78125 100.046875 363.605469 100.792969 364.390625 101.578125 C 365.179688 102.367188 365.925781 103.1875 366.628906 104.046875 C 367.335938 104.90625 367.996094 105.796875 368.617188 106.722656 C 369.234375 107.648438 369.808594 108.597656 370.332031 109.578125 C 370.859375 110.558594 371.332031 111.5625 371.761719 112.589844 C 372.1875 113.617188 372.5625 114.660156 372.890625 115.722656 C 373.214844 116.785156 373.484375 117.863281 373.707031 118.953125 C 373.925781 120.042969 374.089844 121.140625 374.203125 122.246094 C 374.3125 123.355469 374.371094 124.464844 374.375 125.574219 C 374.375 126.320312 374.300781 127.054688 374.15625 127.785156 C 374.011719 128.515625 373.796875 129.222656 373.511719 129.910156 C 373.226562 130.597656 372.878906 131.25 372.464844 131.867188 C 372.050781 132.484375 371.582031 133.058594 371.054688 133.582031 C 370.53125 134.109375 369.957031 134.578125 369.339844 134.992188 C 368.722656 135.40625 368.066406 135.753906 367.382812 136.039062 C 366.695312 136.324219 365.984375 136.539062 365.257812 136.683594 C 364.527344 136.828125 363.789062 136.898438 363.046875 136.898438 C 362.300781 136.898438 361.566406 136.828125 360.835938 136.683594 C 360.105469 136.539062 359.398438 136.324219 358.710938 136.039062 C 358.023438 135.753906 357.371094 135.40625 356.75 134.992188 C 356.132812 134.578125 355.5625 134.109375 355.035156 133.582031 C 354.507812 133.058594 354.039062 132.484375 353.625 131.867188 C 353.214844 131.25 352.863281 130.597656 352.578125 129.910156 C 352.292969 129.222656 352.078125 128.515625 351.933594 127.785156 C 351.789062 127.054688 351.71875 126.320312 351.71875 125.574219 C 351.71875 124.832031 351.644531 124.09375 351.5 123.367188 C 351.355469 122.636719 351.140625 121.929688 350.855469 121.242188 C 350.570312 120.554688 350.222656 119.902344 349.808594 119.28125 C 349.394531 118.664062 348.925781 118.09375 348.398438 117.566406 C 347.871094 117.042969 347.300781 116.570312 346.683594 116.160156 C 346.0625 115.746094 345.410156 115.398438 344.722656 115.113281 C 344.035156 114.828125 343.328125 114.613281 342.597656 114.46875 C 341.867188 114.324219 341.132812 114.25 340.386719 114.25 L 323.394531 114.25 C 322.839844 114.25 322.285156 114.277344 321.730469 114.332031 C 321.175781 114.386719 320.625 114.46875 320.082031 114.578125 C 319.535156 114.683594 318.996094 114.820312 318.460938 114.980469 C 317.929688 115.144531 317.40625 115.332031 316.890625 115.542969 C 316.378906 115.757812 315.875 115.992188 315.386719 116.257812 C 314.894531 116.519531 314.417969 116.804688 313.953125 117.113281 C 313.492188 117.421875 313.046875 117.753906 312.613281 118.105469 C 312.183594 118.457031 311.773438 118.832031 311.378906 119.226562 C 310.984375 119.617188 310.613281 120.03125 310.257812 120.460938 C 309.90625 120.890625 309.574219 121.335938 309.265625 121.800781 C 308.957031 122.261719 308.671875 122.738281 308.410156 123.230469 C 308.144531 123.71875 307.910156 124.222656 307.695312 124.738281 C 307.484375 125.25 307.296875 125.773438 307.132812 126.304688 C 306.972656 126.839844 306.835938 127.378906 306.730469 127.921875 C 306.621094 128.46875 306.539062 129.019531 306.484375 129.574219 C 306.429688 130.125 306.402344 130.679688 306.402344 131.238281 C 306.402344 131.792969 306.429688 132.347656 306.484375 132.902344 C 306.539062 133.457031 306.621094 134.007812 306.730469 134.550781 C 306.835938 135.097656 306.972656 135.636719 307.132812 136.167969 C 307.296875 136.699219 307.484375 137.222656 307.695312 137.738281 C 307.910156 138.253906 308.144531 138.753906 308.410156 139.246094 C 308.671875 139.734375 308.957031 140.210938 309.265625 140.675781 C 309.574219 141.136719 309.90625 141.585938 310.257812 142.015625 C 310.613281 142.445312 310.984375 142.855469 311.378906 143.25 C 311.773438 143.644531 312.183594 144.015625 312.613281 144.367188 C 313.046875 144.722656 313.492188 145.054688 313.953125 145.363281 C 314.417969 145.671875 314.894531 145.957031 315.386719 146.21875 C 315.875 146.480469 316.378906 146.71875 316.890625 146.933594 C 317.40625 147.144531 317.929688 147.332031 318.460938 147.492188 C 318.996094 147.65625 319.535156 147.789062 320.082031 147.898438 C 320.625 148.007812 321.175781 148.089844 321.730469 148.144531 C 322.285156 148.199219 322.839844 148.226562 323.394531 148.226562 L 334.722656 148.226562 C 336.023438 148.226562 337.316406 148.289062 338.609375 148.414062 C 339.902344 148.542969 341.1875 148.734375 342.460938 148.988281 C 343.734375 149.238281 344.992188 149.554688 346.234375 149.933594 C 347.476562 150.308594 348.699219 150.746094 349.898438 151.242188 C 351.097656 151.738281 352.269531 152.292969 353.414062 152.90625 C 354.558594 153.515625 355.671875 154.183594 356.753906 154.90625 C 357.832031 155.625 358.875 156.398438 359.878906 157.222656 C 360.882812 158.046875 361.84375 158.917969 362.761719 159.835938 C 363.679688 160.753906 364.550781 161.714844 365.375 162.714844 C 366.199219 163.71875 366.972656 164.761719 367.691406 165.839844 C 368.414062 166.921875 369.082031 168.03125 369.691406 169.175781 C 370.304688 170.324219 370.859375 171.496094 371.355469 172.695312 C 371.851562 173.894531 372.289062 175.113281 372.667969 176.355469 C 373.042969 177.597656 373.359375 178.855469 373.613281 180.128906 C 373.867188 181.402344 374.054688 182.683594 374.183594 183.976562 C 374.3125 185.269531 374.375 186.5625 374.375 187.863281 C 374.375 189.160156 374.3125 190.457031 374.183594 191.746094 C 374.054688 193.039062 373.867188 194.320312 373.613281 195.59375 C 373.359375 196.867188 373.042969 198.125 372.667969 199.367188 C 372.289062 200.609375 371.851562 201.832031 371.355469 203.03125 C 370.859375 204.230469 370.304688 205.402344 369.691406 206.546875 C 369.082031 207.691406 368.414062 208.804688 367.691406 209.882812 C 366.972656 210.964844 366.199219 212.003906 365.375 213.007812 C 364.550781 214.011719 363.679688 214.972656 362.761719 215.890625 C 361.84375 216.808594 360.882812 217.679688 359.878906 218.503906 C 358.875 219.328125 357.832031 220.097656 356.753906 220.820312 C 355.671875 221.542969 354.558594 222.207031 353.414062 222.820312 C 352.269531 223.429688 351.097656 223.984375 349.898438 224.484375 C 348.699219 224.980469 347.476562 225.417969 346.234375 225.792969 C 344.992188 226.171875 343.734375 226.484375 342.460938 226.738281 C 341.1875 226.992188 339.902344 227.183594 338.609375 227.308594 C 337.316406 227.4375 336.023438 227.5 334.722656 227.5 L 317.730469 227.5 C 316.617188 227.496094 315.507812 227.4375 314.402344 227.328125 C 313.296875 227.214844 312.199219 227.050781 311.109375 226.832031 C 310.015625 226.613281 308.941406 226.339844 307.875 226.015625 C 306.8125 225.691406 305.765625 225.3125 304.742188 224.886719 C 303.714844 224.460938 302.710938 223.984375 301.730469 223.460938 C 300.75 222.933594 299.796875 222.363281 298.871094 221.742188 C 297.949219 221.125 297.054688 220.464844 296.195312 219.757812 C 295.335938 219.050781 294.515625 218.304688 293.726562 217.519531 C 292.941406 216.734375 292.195312 215.910156 291.488281 215.050781 C 290.785156 214.191406 290.121094 213.300781 289.503906 212.378906 C 288.882812 211.453125 288.3125 210.5 287.785156 209.519531 C 287.261719 208.542969 286.785156 207.539062 286.359375 206.511719 C 285.929688 205.484375 285.554688 204.441406 285.230469 203.375 C 284.90625 202.3125 284.632812 201.238281 284.414062 200.144531 C 284.195312 199.054688 284.027344 197.957031 283.917969 196.851562 C 283.804688 195.746094 283.75 194.636719 283.746094 193.523438 C 283.746094 192.78125 283.816406 192.042969 283.960938 191.316406 C 284.109375 190.585938 284.324219 189.878906 284.605469 189.191406 C 284.890625 188.503906 285.242188 187.851562 285.652344 187.234375 C 286.066406 186.613281 286.535156 186.042969 287.0625 185.515625 C 287.589844 184.992188 288.160156 184.523438 288.78125 184.109375 C 289.398438 183.695312 290.050781 183.347656 290.738281 183.0625 C 291.425781 182.777344 292.132812 182.5625 292.863281 182.417969 C 293.59375 182.273438 294.328125 182.199219 295.074219 182.199219 C 295.816406 182.199219 296.554688 182.273438 297.285156 182.417969 C 298.011719 182.5625 298.722656 182.777344 299.410156 183.0625 C 300.097656 183.347656 300.75 183.695312 301.367188 184.109375 C 301.984375 184.523438 302.558594 184.992188 303.085938 185.515625 C 303.609375 186.042969 304.078125 186.613281 304.492188 187.234375 C 304.90625 187.851562 305.253906 188.503906 305.539062 189.191406 C 305.824219 189.878906 306.039062 190.585938 306.183594 191.316406 C 306.328125 192.042969 306.402344 192.78125 306.402344 193.523438 C 306.402344 194.269531 306.476562 195.003906 306.621094 195.734375 C 306.765625 196.464844 306.980469 197.171875 307.265625 197.859375 C 307.550781 198.546875 307.898438 199.199219 308.3125 199.816406 C 308.726562 200.433594 309.195312 201.007812 309.71875 201.53125 C 310.246094 202.058594 310.820312 202.527344 311.4375 202.941406 C 312.054688 203.355469 312.707031 203.703125 313.394531 203.988281 C 314.082031 204.273438 314.792969 204.488281 315.519531 204.632812 C 316.25 204.777344 316.988281 204.851562 317.730469 204.851562 L 334.722656 204.851562 C 335.28125 204.851562 335.835938 204.824219 336.390625 204.769531 C 336.945312 204.714844 337.492188 204.632812 338.039062 204.523438 C 338.585938 204.414062 339.125 204.28125 339.65625 204.117188 C 340.1875 203.957031 340.710938 203.769531 341.226562 203.558594 C 341.742188 203.34375 342.242188 203.105469 342.734375 202.84375 C 343.226562 202.582031 343.703125 202.296875 344.164062 201.988281 C 344.628906 201.679688 345.074219 201.347656 345.503906 200.992188 C 345.933594 200.640625 346.347656 200.269531 346.738281 199.875 C 347.132812 199.480469 347.507812 199.070312 347.859375 198.640625 C 348.210938 198.210938 348.542969 197.761719 348.851562 197.300781 C 349.164062 196.835938 349.449219 196.359375 349.710938 195.871094 C 349.972656 195.378906 350.210938 194.878906 350.421875 194.363281 C 350.636719 193.847656 350.824219 193.324219 350.984375 192.792969 C 351.148438 192.261719 351.28125 191.722656 351.390625 191.175781 C 351.5 190.632812 351.582031 190.082031 351.636719 189.527344 C 351.691406 188.972656 351.71875 188.417969 351.71875 187.863281 C 351.71875 187.304688 351.691406 186.75 351.636719 186.199219 C 351.582031 185.644531 351.5 185.09375 351.390625 184.546875 C 351.28125 184.003906 351.148438 183.464844 350.984375 182.929688 C 350.824219 182.398438 350.636719 181.875 350.421875 181.363281 C 350.210938 180.847656 349.972656 180.34375 349.710938 179.855469 C 349.449219 179.363281 349.164062 178.886719 348.851562 178.425781 C 348.542969 177.960938 348.210938 177.515625 347.859375 177.085938 C 347.507812 176.65625 347.132812 176.242188 346.738281 175.851562 C 346.347656 175.457031 345.933594 175.082031 345.503906 174.730469 C 345.074219 174.378906 344.628906 174.046875 344.164062 173.738281 C 343.703125 173.429688 343.226562 173.144531 342.734375 172.882812 C 342.242188 172.617188 341.742188 172.382812 341.226562 172.167969 C 340.710938 171.957031 340.1875 171.769531 339.65625 171.605469 C 339.125 171.445312 338.585938 171.308594 338.039062 171.203125 C 337.492188 171.09375 336.945312 171.011719 336.390625 170.957031 C 335.835938 170.902344 335.28125 170.875 334.722656 170.875 Z M 431.019531 148.226562 L 431.019531 84.917969 L 505.675781 159.550781 L 442.347656 159.550781 C 441.601562 159.550781 440.867188 159.476562 440.136719 159.332031 C 439.40625 159.1875 438.699219 158.972656 438.011719 158.6875 C 437.324219 158.402344 436.671875 158.054688 436.054688 157.640625 C 435.433594 157.226562 434.863281 156.757812 434.335938 156.234375 C 433.808594 155.707031 433.339844 155.136719 432.925781 154.515625 C 432.515625 153.898438 432.164062 153.246094 431.878906 152.558594 C 431.597656 151.871094 431.378906 151.164062 431.234375 150.433594 C 431.089844 149.707031 431.019531 148.96875 431.019531 148.226562 Z M 566.960938 612.550781 L 544.304688 612.550781 L 544.304688 170.875 C 544.292969 169.375 544.003906 167.929688 543.4375 166.539062 C 542.867188 165.148438 542.0625 163.914062 541.019531 162.835938 L 427.734375 49.585938 C 426.652344 48.542969 425.417969 47.734375 424.027344 47.167969 C 422.636719 46.601562 421.191406 46.3125 419.6875 46.300781 L 68.5 46.300781 L 68.5 23.648438 L 566.960938 23.648438 Z M 566.960938 612.550781 " fill-opacity="1" fill-rule="nonzero"/></g></g></g></g></svg>