<svg xmlns="http://www.w3.org/2000/svg" xmlns:xlink="http://www.w3.org/1999/xlink" width="1080" zoomAndPan="magnify" viewBox="0 0 810 809.999993" height="1080" preserveAspectRatio="xMidYMid meet" version="1.0"><defs><filter x="0%" y="0%" width="100%" height="100%" id="04c3d7cbc6"><feColorMatrix values="0 0 0 0 1 0 0 0 0 1 0 0 0 0 1 0 0 0 1 0" color-interpolation-filters="sRGB"/></filter><mask id="2d172945cc"><g filter="url(#04c3d7cbc6)"><rect x="-81" width="972" fill="#000000" y="-80.999999" height="971.999992" fill-opacity="0.74"/></g></mask><clipPath id="b65fd24f19"><path d="M 2 0.792969 L 593.398438 0.792969 L 593.398438 592 L 2 592 Z M 2 0.792969 " clip-rule="nonzero"/></clipPath><clipPath id="37bd49a69a"><path d="M 2 0.792969 L 299 0.792969 L 299 592 L 2 592 Z M 2 0.792969 " clip-rule="nonzero"/></clipPath><clipPath id="44fa57863b"><rect x="0" width="594" y="0" height="594"/></clipPath></defs><g mask="url(#2d172945cc)"><g transform="matrix(1, 0, 0, 1, 108, 136)"><g clip-path="url(#44fa57863b)"><g clip-path="url(#b65fd24f19)"><path fill="#ffc44d" d="M 22.941406 -0.585938 C 17.015625 -0.585938 11.371094 1.960938 7.449219 6.40625 C 3.523438 10.851562 1.699219 16.765625 2.433594 22.648438 L 57.550781 463.578125 C 58.40625 470.4375 62.636719 476.410156 68.816406 479.5 L 289.28125 589.734375 C 295.097656 592.644531 301.949219 592.644531 307.769531 589.734375 L 528.234375 479.5 C 534.414062 476.410156 538.640625 470.4375 539.5 463.578125 L 594.613281 22.648438 C 595.351562 16.765625 593.523438 10.851562 589.601562 6.40625 C 585.679688 1.960938 580.035156 -0.585938 574.105469 -0.585938 Z M 22.941406 -0.585938 " fill-opacity="1" fill-rule="nonzero"/></g><g clip-path="url(#37bd49a69a)"><path fill="#e5b045" d="M 298.523438 -0.585938 L 298.523438 591.914062 C 295.359375 591.914062 292.191406 591.1875 289.28125 589.734375 L 68.816406 479.5 C 62.636719 476.410156 58.40625 470.4375 57.550781 463.578125 L 2.433594 22.648438 C 1.699219 16.765625 3.523438 10.851562 7.449219 6.40625 C 11.371094 1.960938 17.015625 -0.585938 22.941406 -0.585938 Z M 298.523438 -0.585938 " fill-opacity="1" fill-rule="evenodd"/></g><path fill="#cfd8dc" d="M 257.191406 82.089844 C 268.605469 82.089844 277.859375 91.34375 277.859375 102.757812 L 277.859375 461.015625 C 277.859375 468.382812 273.9375 475.191406 267.5625 478.890625 C 261.191406 482.589844 253.332031 482.613281 246.9375 478.960938 L 150.484375 423.84375 C 140.570312 418.179688 137.128906 405.554688 142.792969 395.644531 C 148.457031 385.734375 161.082031 382.289062 170.992188 387.953125 L 236.519531 425.398438 L 236.519531 102.757812 C 236.519531 91.34375 245.777344 82.089844 257.191406 82.089844 Z M 257.191406 82.089844 " fill-opacity="1" fill-rule="evenodd"/><path fill="#eceff1" d="M 319.199219 102.757812 C 319.199219 91.34375 328.453125 82.089844 339.867188 82.089844 L 477.65625 82.089844 C 489.074219 82.089844 498.328125 91.34375 498.328125 102.757812 C 498.328125 114.171875 489.074219 123.425781 477.65625 123.425781 L 360.535156 123.425781 L 360.535156 256.121094 L 459.394531 234.152344 C 465.835938 232.722656 472.574219 234.449219 477.527344 238.808594 C 482.484375 243.167969 485.058594 249.628906 484.460938 256.199219 L 470.683594 407.769531 C 470.035156 414.898438 465.746094 421.183594 459.34375 424.382812 L 349.109375 479.5 C 338.898438 484.605469 326.484375 480.46875 321.378906 470.257812 C 316.273438 460.046875 320.414062 447.632812 330.625 442.527344 L 430.558594 392.558594 L 440.734375 280.644531 L 344.351562 302.0625 C 338.230469 303.421875 331.824219 301.933594 326.933594 298.007812 C 322.042969 294.085938 319.199219 288.15625 319.199219 281.886719 Z M 319.199219 102.757812 " fill-opacity="1" fill-rule="evenodd"/></g></g></g></svg>