<svg xmlns="http://www.w3.org/2000/svg" xmlns:xlink="http://www.w3.org/1999/xlink" width="500" zoomAndPan="magnify" viewBox="0 0 375 374.999991" height="500" preserveAspectRatio="xMidYMid meet" version="1.0"><defs><g/></defs><g fill="#000000" fill-opacity="1"><g transform="translate(0.0000045, 284.128696)"><g><path d="M 159.625 -184.25 L 159.625 0 L 121.75 0 L 28.953125 -175.046875 L 28.953125 -5.140625 L 43.828125 -5.140625 L 43.828125 0 L 6.765625 0 L 6.765625 -5.140625 L 21.640625 -5.140625 L 21.640625 -184.25 L 6.765625 -184.25 L 6.765625 -189.390625 L 81.4375 -189.390625 L 152.328125 -53.578125 L 152.328125 -184.25 L 137.453125 -184.25 L 137.453125 -189.390625 L 174.515625 -189.390625 L 174.515625 -184.25 Z M 159.625 -184.25 "/></g></g></g><g fill="#000000" fill-opacity="1"><g transform="translate(181.275671, 284.128696)"><g><path d="M 88.75 -95.78125 L 74.40625 -95.78125 L 74.40625 -5.140625 L 91.984375 -5.140625 L 91.984375 0 L 4.0625 0 L 4.0625 -5.140625 L 21.640625 -5.140625 L 21.640625 -184.25 L 4.0625 -184.25 L 4.0625 -189.390625 L 85.765625 -189.390625 C 109.210938 -189.390625 125.851562 -188.171875 135.6875 -185.734375 C 145.519531 -183.304688 152.421875 -180.378906 156.390625 -176.953125 C 165.046875 -169.910156 169.375 -158.722656 169.375 -143.390625 C 169.375 -128.066406 165.582031 -117.113281 158 -110.53125 C 150.425781 -103.945312 138.882812 -100.019531 123.375 -98.75 L 123.375 -97.9375 C 137.988281 -95.957031 148.179688 -91.628906 153.953125 -84.953125 C 159.722656 -78.285156 162.609375 -67.101562 162.609375 -51.40625 L 162.609375 -37.0625 C 162.609375 -27.6875 163.101562 -21.375 164.09375 -18.125 C 165.082031 -14.875 167.203125 -13.25 170.453125 -13.25 C 173.703125 -13.25 176.269531 -14.738281 178.15625 -17.71875 C 180.050781 -20.695312 181.8125 -26.96875 183.4375 -36.53125 L 188.046875 -35.984375 C 186.054688 -20.648438 182.582031 -10.367188 177.625 -5.140625 C 172.664062 0.0859375 162.789062 2.703125 148 2.703125 C 133.207031 2.703125 122.695312 -0.765625 116.46875 -7.703125 C 110.25 -14.648438 107.140625 -27.6875 107.140625 -46.8125 L 107.140625 -66.5625 C 107.140625 -76.65625 105.832031 -84.046875 103.21875 -88.734375 C 100.601562 -93.429688 95.78125 -95.78125 88.75 -95.78125 Z M 74.40625 -184.25 L 74.40625 -100.921875 L 83.0625 -100.921875 C 93.34375 -100.921875 100.960938 -104.078125 105.921875 -110.390625 C 110.878906 -116.703125 113.359375 -126.984375 113.359375 -141.234375 L 113.359375 -149.078125 C 113.359375 -163.328125 110.96875 -172.75 106.1875 -177.34375 C 101.414062 -181.945312 93.796875 -184.25 83.328125 -184.25 Z M 74.40625 -184.25 "/></g></g></g></svg>