<svg xmlns="http://www.w3.org/2000/svg" xmlns:xlink="http://www.w3.org/1999/xlink" width="1080" zoomAndPan="magnify" viewBox="0 0 810 809.999993" height="1080" preserveAspectRatio="xMidYMid meet" version="1.0"><defs><filter x="0%" y="0%" width="100%" height="100%" id="eaea7d704d"><feColorMatrix values="0 0 0 0 1 0 0 0 0 1 0 0 0 0 1 0 0 0 1 0" color-interpolation-filters="sRGB"/></filter><mask id="9d1d0ed4f7"><g filter="url(#eaea7d704d)"><rect x="-81" width="972" fill="#000000" y="-80.999999" height="971.999992" fill-opacity="0.5"/></g></mask><clipPath id="e44355ae09"><path d="M 4 0.699219 L 582 0.699219 L 582 207.699219 L 4 207.699219 Z M 4 0.699219 " clip-rule="nonzero"/></clipPath><clipPath id="ee02d638fa"><rect x="0" width="742" y="0" height="209"/></clipPath></defs><g mask="url(#9d1d0ed4f7)"><g transform="matrix(1, 0, 0, 1, 34, 278)"><g clip-path="url(#ee02d638fa)"><path fill="#83cd29" d="M 678.269531 73.96875 C 676.488281 73.96875 674.753906 74.335938 673.21875 75.203125 L 624.679688 103.199219 C 621.535156 105.007812 619.628906 108.421875 619.628906 112.050781 L 619.628906 167.945312 C 619.628906 171.574219 621.535156 174.984375 624.679688 176.796875 L 637.355469 184.089844 C 643.515625 187.125 645.785156 187.074219 648.589844 187.074219 C 657.707031 187.074219 662.914062 181.550781 662.914062 171.945312 L 662.914062 116.796875 C 662.914062 116.019531 662.238281 115.460938 661.46875 115.460938 L 655.390625 115.460938 C 654.609375 115.460938 653.949219 116.035156 653.949219 116.796875 L 653.949219 171.96875 C 653.949219 176.226562 649.507812 180.507812 642.300781 176.910156 L 629.125 169.191406 C 628.660156 168.9375 628.300781 168.476562 628.300781 167.957031 L 628.300781 112.0625 C 628.300781 111.535156 628.652344 110.992188 629.125 110.726562 L 677.5625 82.828125 C 678.019531 82.570312 678.558594 82.570312 679.007812 82.828125 L 727.445312 110.726562 C 727.90625 111 728.269531 111.515625 728.269531 112.0625 L 728.269531 167.957031 C 728.269531 168.488281 728.003906 169.035156 727.546875 169.292969 L 679.007812 197.191406 C 678.578125 197.4375 678.003906 197.4375 677.566406 197.191406 L 665.09375 189.777344 C 664.722656 189.5625 664.214844 189.578125 663.859375 189.777344 C 660.417969 191.726562 659.769531 191.953125 656.542969 193.074219 C 655.746094 193.347656 654.535156 193.777344 656.953125 195.132812 L 673.238281 204.71875 C 674.789062 205.613281 676.515625 206.054688 678.289062 206.054688 C 680.085938 206.054688 681.789062 205.625 683.339844 204.71875 L 731.878906 176.820312 C 735.023438 174.996094 736.929688 171.597656 736.929688 167.96875 L 736.929688 112.078125 C 736.929688 108.445312 735.023438 105.039062 731.878906 103.226562 L 683.339844 75.230469 C 681.816406 74.363281 680.074219 73.996094 678.289062 73.996094 Z M 691.257812 113.90625 C 677.433594 113.90625 669.203125 119.78125 669.203125 129.550781 C 669.203125 140.136719 677.371094 143.0625 690.636719 144.371094 C 706.507812 145.925781 707.746094 148.253906 707.746094 151.371094 C 707.746094 156.785156 703.425781 159.09375 693.214844 159.09375 C 680.386719 159.09375 677.566406 155.894531 676.621094 149.507812 C 676.511719 148.824219 675.984375 148.273438 675.285156 148.273438 L 668.980469 148.273438 C 668.789062 148.277344 668.609375 148.316406 668.433594 148.390625 C 668.257812 148.464844 668.105469 148.570312 667.96875 148.703125 C 667.835938 148.839844 667.730469 148.992188 667.65625 149.167969 C 667.582031 149.339844 667.542969 149.523438 667.539062 149.714844 C 667.539062 157.871094 671.980469 167.519531 693.203125 167.519531 C 708.5625 167.519531 717.421875 161.511719 717.421875 150.949219 C 717.421875 140.503906 710.265625 137.683594 695.367188 135.710938 C 680.324219 133.710938 678.875 132.75 678.875 129.226562 C 678.875 126.320312 680.09375 122.433594 691.242188 122.433594 C 701.203125 122.433594 704.882812 124.578125 706.394531 131.285156 C 706.527344 131.914062 707.082031 132.429688 707.734375 132.429688 L 714.035156 132.429688 C 714.421875 132.429688 714.796875 132.191406 715.066406 131.914062 C 715.332031 131.617188 715.515625 131.285156 715.480469 130.882812 C 714.503906 119.332031 706.792969 113.898438 691.261719 113.898438 Z M 691.257812 113.90625 " fill-opacity="1" fill-rule="nonzero"/><g clip-path="url(#e44355ae09)"><path fill="#404137" d="M 392.890625 0.699219 C 392.339844 0.699219 391.824219 0.835938 391.347656 1.109375 C 390.871094 1.390625 390.496094 1.765625 390.21875 2.246094 C 389.941406 2.722656 389.804688 3.238281 389.800781 3.789062 L 389.800781 82.527344 C 389.800781 83.300781 389.441406 83.992188 388.769531 84.382812 C 388.4375 84.578125 388.074219 84.675781 387.6875 84.675781 C 387.300781 84.675781 386.941406 84.578125 386.605469 84.382812 L 373.722656 76.972656 C 373.253906 76.699219 372.753906 76.492188 372.230469 76.351562 C 371.707031 76.210938 371.171875 76.140625 370.628906 76.140625 C 370.089844 76.140625 369.554688 76.210938 369.03125 76.351562 C 368.507812 76.492188 368.007812 76.699219 367.539062 76.972656 L 316.117188 106.613281 C 314.195312 107.722656 313.023438 109.851562 313.023438 112.070312 L 313.023438 171.355469 C 313.019531 171.898438 313.089844 172.433594 313.230469 172.957031 C 313.371094 173.480469 313.578125 173.976562 313.847656 174.445312 C 314.121094 174.917969 314.449219 175.34375 314.832031 175.726562 C 315.214844 176.109375 315.644531 176.4375 316.113281 176.707031 L 367.542969 206.351562 C 368.011719 206.625 368.507812 206.832031 369.03125 206.972656 C 369.558594 207.113281 370.089844 207.183594 370.632812 207.183594 C 371.175781 207.183594 371.710938 207.113281 372.234375 206.972656 C 372.757812 206.832031 373.257812 206.625 373.726562 206.351562 L 425.152344 176.707031 C 425.625 176.4375 426.050781 176.109375 426.433594 175.726562 C 426.820312 175.34375 427.148438 174.917969 427.417969 174.445312 C 427.691406 173.976562 427.894531 173.480469 428.035156 172.957031 C 428.175781 172.433594 428.246094 171.898438 428.246094 171.355469 L 428.246094 23.550781 C 428.246094 21.300781 427.015625 19.191406 425.050781 18.09375 L 394.441406 1 C 393.960938 0.734375 393.425781 0.6875 392.894531 0.691406 Z M 62.066406 74.707031 C 61.082031 74.746094 60.164062 74.914062 59.28125 75.425781 L 7.855469 105.070312 C 7.382812 105.339844 6.957031 105.667969 6.574219 106.050781 C 6.1875 106.433594 5.859375 106.859375 5.589844 107.328125 C 5.316406 107.800781 5.113281 108.296875 4.972656 108.820312 C 4.832031 109.34375 4.761719 109.878906 4.765625 110.421875 L 4.871094 189.988281 C 4.871094 191.09375 5.441406 192.121094 6.417969 192.664062 C 7.371094 193.234375 8.554688 193.234375 9.507812 192.664062 L 40.011719 175.164062 C 41.945312 174.019531 43.207031 172.023438 43.207031 169.8125 L 43.207031 132.652344 C 43.207031 130.433594 44.375 128.402344 46.300781 127.300781 L 59.289062 119.789062 C 60.242188 119.234375 61.273438 118.957031 62.378906 118.964844 C 63.484375 118.957031 64.515625 119.234375 65.472656 119.789062 L 78.453125 127.296875 C 80.375 128.398438 81.542969 130.433594 81.542969 132.648438 L 81.542969 169.804688 C 81.542969 172.015625 82.832031 174.027344 84.738281 175.15625 L 115.242188 192.65625 C 116.203125 193.226562 117.382812 193.226562 118.335938 192.65625 C 119.28125 192.109375 119.882812 191.085938 119.882812 189.980469 L 119.984375 110.414062 C 119.988281 109.871094 119.917969 109.339844 119.78125 108.8125 C 119.640625 108.289062 119.4375 107.792969 119.164062 107.320312 C 118.890625 106.851562 118.5625 106.425781 118.179688 106.042969 C 117.792969 105.660156 117.363281 105.332031 116.894531 105.0625 L 65.46875 75.429688 C 64.597656 74.921875 63.671875 74.75 62.683594 74.710938 L 62.066406 74.710938 Z M 524.1875 75.425781 C 523.082031 75.421875 522.050781 75.699219 521.09375 76.25 L 469.667969 105.894531 C 467.746094 107.003906 466.574219 109.03125 466.574219 111.246094 L 466.574219 170.53125 C 466.574219 172.761719 467.828125 174.78125 469.765625 175.882812 L 520.78125 204.921875 C 522.664062 205.996094 524.964844 206.078125 526.863281 205.023438 L 557.78125 187.832031 C 558.761719 187.289062 559.425781 186.273438 559.425781 185.160156 C 559.429688 184.042969 558.851562 183.039062 557.878906 182.484375 L 506.140625 152.839844 C 505.175781 152.285156 504.496094 151.167969 504.496094 150.058594 L 504.496094 131.519531 C 504.496094 130.410156 505.183594 129.394531 506.140625 128.84375 L 522.21875 119.578125 C 523.175781 119.027344 524.351562 119.027344 525.3125 119.578125 L 541.429688 128.84375 C 541.90625 129.117188 542.285156 129.496094 542.5625 129.972656 C 542.835938 130.453125 542.976562 130.96875 542.972656 131.519531 L 542.972656 146.136719 C 542.972656 146.6875 543.109375 147.203125 543.386719 147.679688 C 543.664062 148.160156 544.039062 148.535156 544.519531 148.808594 C 545.484375 149.367188 546.652344 149.367188 547.613281 148.808594 L 578.425781 130.898438 C 580.335938 129.789062 581.519531 127.757812 581.519531 125.550781 L 581.519531 111.242188 C 581.519531 110.703125 581.449219 110.167969 581.308594 109.644531 C 581.167969 109.121094 580.960938 108.625 580.691406 108.152344 C 580.417969 107.683594 580.089844 107.257812 579.707031 106.875 C 579.324219 106.492188 578.894531 106.164062 578.425781 105.890625 L 527.308594 76.246094 C 526.351562 75.695312 525.320312 75.417969 524.214844 75.421875 Z M 370.417969 119.6875 C 370.710938 119.6875 370.984375 119.753906 371.242188 119.894531 L 388.867188 130.082031 C 389.34375 130.359375 389.691406 130.871094 389.691406 131.421875 L 389.691406 151.800781 C 389.691406 152.355469 389.347656 152.863281 388.867188 153.136719 L 371.242188 163.328125 C 370.761719 163.601562 370.175781 163.601562 369.695312 163.328125 L 352.074219 153.136719 C 351.59375 152.863281 351.25 152.351562 351.25 151.800781 L 351.25 131.425781 C 351.25 130.875 351.59375 130.367188 352.074219 130.089844 L 369.695312 119.898438 C 369.9375 119.761719 370.148438 119.695312 370.417969 119.695312 Z M 370.417969 119.6875 " fill-opacity="1" fill-rule="nonzero"/></g><path fill="#83cd29" d="M 216.550781 75.117188 C 215.445312 75.113281 214.414062 75.390625 213.457031 75.941406 L 162.027344 105.480469 C 160.105469 106.589844 158.9375 108.722656 158.9375 110.9375 L 158.9375 170.222656 C 158.933594 170.765625 159.003906 171.300781 159.144531 171.824219 C 159.285156 172.347656 159.488281 172.84375 159.761719 173.3125 C 160.03125 173.785156 160.359375 174.210938 160.746094 174.59375 C 161.128906 174.976562 161.558594 175.304688 162.027344 175.574219 L 213.457031 205.21875 C 213.925781 205.488281 214.421875 205.695312 214.945312 205.835938 C 215.472656 205.980469 216.003906 206.050781 216.546875 206.050781 C 217.089844 206.050781 217.625 205.980469 218.148438 205.835938 C 218.671875 205.695312 219.167969 205.488281 219.640625 205.21875 L 271.066406 175.574219 C 271.539062 175.304688 271.964844 174.976562 272.347656 174.59375 C 272.734375 174.210938 273.0625 173.78125 273.332031 173.3125 C 273.605469 172.84375 273.808594 172.347656 273.949219 171.820312 C 274.089844 171.296875 274.160156 170.765625 274.160156 170.222656 L 274.160156 110.9375 C 274.160156 108.722656 272.992188 106.589844 271.066406 105.484375 L 219.636719 75.941406 C 218.679688 75.390625 217.648438 75.113281 216.542969 75.117188 Z M 524.085938 128.023438 C 523.882812 128.023438 523.652344 128.023438 523.46875 128.121094 L 513.574219 133.886719 C 513.167969 134.113281 512.964844 134.457031 512.953125 134.917969 L 512.953125 146.238281 C 512.953125 146.667969 513.203125 147.054688 513.574219 147.269531 L 523.46875 152.929688 C 523.84375 153.164062 524.222656 153.164062 524.597656 152.929688 L 534.492188 147.269531 C 534.859375 147.058594 535.113281 146.667969 535.113281 146.238281 L 535.113281 134.917969 C 535.113281 134.492188 534.859375 134.101562 534.492188 133.886719 L 524.597656 128.121094 C 524.414062 128.011719 524.289062 128.019531 524.082031 128.019531 Z M 524.085938 128.023438 " fill-opacity="1" fill-rule="nonzero"/></g></g></g></svg>