<svg xmlns="http://www.w3.org/2000/svg" xmlns:xlink="http://www.w3.org/1999/xlink" width="1080" zoomAndPan="magnify" viewBox="0 0 810 809.999993" height="1080" preserveAspectRatio="xMidYMid meet" version="1.0"><defs><filter x="0%" y="0%" width="100%" height="100%" id="a21fd97565"><feColorMatrix values="0 0 0 0 1 0 0 0 0 1 0 0 0 0 1 0 0 0 1 0" color-interpolation-filters="sRGB"/></filter><mask id="7d5c868866"><g filter="url(#a21fd97565)"><rect x="-81" width="972" fill="#000000" y="-80.999999" height="971.999992" fill-opacity="0.48"/></g></mask><clipPath id="295dcdbba2"><path d="M 15.214844 23 L 349 23 L 349 253 L 15.214844 253 Z M 15.214844 23 " clip-rule="nonzero"/></clipPath><clipPath id="0f3dfddc87"><path d="M 15.214844 12.402344 L 296 12.402344 L 296 263.652344 L 15.214844 263.652344 Z M 15.214844 12.402344 " clip-rule="nonzero"/></clipPath><clipPath id="517279f62c"><path d="M 15.214844 12.402344 L 297 12.402344 L 297 263.652344 L 15.214844 263.652344 Z M 15.214844 12.402344 " clip-rule="nonzero"/></clipPath><clipPath id="1ccbc23d2d"><rect x="0" width="737" y="0" height="276"/></clipPath></defs><g mask="url(#7d5c868866)"><g transform="matrix(1, 0, 0, 1, 30, 267)"><g clip-path="url(#1ccbc23d2d)"><path fill="#545454" d="M 177.695312 137.777344 C 177.695312 138.566406 177.65625 139.355469 177.578125 140.140625 C 177.503906 140.925781 177.386719 141.707031 177.230469 142.480469 C 177.078125 143.253906 176.886719 144.019531 176.65625 144.777344 C 176.429688 145.53125 176.160156 146.277344 175.859375 147.003906 C 175.558594 147.734375 175.21875 148.449219 174.847656 149.144531 C 174.476562 149.839844 174.070312 150.519531 173.632812 151.175781 C 173.191406 151.832031 172.722656 152.464844 172.222656 153.074219 C 171.71875 153.6875 171.191406 154.269531 170.632812 154.828125 C 170.074219 155.386719 169.488281 155.917969 168.878906 156.417969 C 168.269531 156.921875 167.632812 157.390625 166.976562 157.828125 C 166.320312 158.265625 165.644531 158.671875 164.945312 159.046875 C 164.25 159.417969 163.539062 159.753906 162.808594 160.058594 C 162.078125 160.359375 161.335938 160.625 160.578125 160.855469 C 159.824219 161.082031 159.058594 161.277344 158.285156 161.429688 C 157.507812 161.582031 156.726562 161.699219 155.941406 161.777344 C 155.15625 161.855469 154.367188 161.894531 153.578125 161.894531 C 152.789062 161.894531 152 161.855469 151.214844 161.777344 C 150.429688 161.699219 149.648438 161.582031 148.875 161.429688 C 148.097656 161.277344 147.332031 161.082031 146.578125 160.855469 C 145.820312 160.625 145.078125 160.359375 144.347656 160.058594 C 143.621094 159.753906 142.90625 159.417969 142.210938 159.046875 C 141.511719 158.671875 140.835938 158.265625 140.179688 157.828125 C 139.523438 157.390625 138.890625 156.921875 138.277344 156.417969 C 137.667969 155.917969 137.082031 155.386719 136.523438 154.828125 C 135.964844 154.269531 135.4375 153.6875 134.9375 153.074219 C 134.433594 152.464844 133.964844 151.832031 133.527344 151.175781 C 133.085938 150.519531 132.683594 149.839844 132.308594 149.144531 C 131.9375 148.449219 131.601562 147.734375 131.296875 147.003906 C 130.996094 146.277344 130.730469 145.53125 130.5 144.777344 C 130.269531 144.019531 130.078125 143.257812 129.925781 142.480469 C 129.769531 141.707031 129.65625 140.925781 129.578125 140.140625 C 129.5 139.355469 129.460938 138.566406 129.460938 137.777344 C 129.460938 136.988281 129.5 136.199219 129.578125 135.414062 C 129.65625 134.625 129.769531 133.847656 129.925781 133.070312 C 130.078125 132.296875 130.269531 131.53125 130.5 130.777344 C 130.730469 130.019531 130.996094 129.277344 131.296875 128.546875 C 131.601562 127.816406 131.9375 127.105469 132.308594 126.40625 C 132.683594 125.710938 133.085938 125.035156 133.527344 124.378906 C 133.964844 123.722656 134.433594 123.085938 134.9375 122.476562 C 135.4375 121.867188 135.964844 121.28125 136.523438 120.722656 C 137.082031 120.164062 137.667969 119.632812 138.277344 119.132812 C 138.890625 118.632812 139.523438 118.164062 140.179688 117.722656 C 140.835938 117.285156 141.511719 116.878906 142.210938 116.507812 C 142.90625 116.132812 143.621094 115.796875 144.347656 115.496094 C 145.078125 115.191406 145.820312 114.925781 146.578125 114.699219 C 147.332031 114.46875 148.097656 114.277344 148.875 114.121094 C 149.648438 113.96875 150.429688 113.851562 151.214844 113.777344 C 152 113.699219 152.789062 113.660156 153.578125 113.660156 C 154.367188 113.660156 155.15625 113.699219 155.941406 113.777344 C 156.726562 113.851562 157.507812 113.96875 158.285156 114.121094 C 159.058594 114.277344 159.824219 114.46875 160.578125 114.699219 C 161.335938 114.925781 162.078125 115.191406 162.808594 115.496094 C 163.539062 115.796875 164.25 116.132812 164.945312 116.507812 C 165.644531 116.878906 166.320312 117.285156 166.976562 117.722656 C 167.632812 118.164062 168.269531 118.632812 168.878906 119.132812 C 169.488281 119.632812 170.074219 120.164062 170.632812 120.722656 C 171.191406 121.28125 171.71875 121.867188 172.222656 122.476562 C 172.722656 123.085938 173.191406 123.722656 173.632812 124.378906 C 174.070312 125.035156 174.476562 125.710938 174.847656 126.40625 C 175.21875 127.105469 175.558594 127.816406 175.859375 128.546875 C 176.160156 129.277344 176.429688 130.019531 176.65625 130.777344 C 176.886719 131.53125 177.078125 132.296875 177.230469 133.070312 C 177.386719 133.847656 177.503906 134.625 177.578125 135.414062 C 177.65625 136.199219 177.695312 136.988281 177.695312 137.777344 Z M 177.695312 137.777344 " fill-opacity="1" fill-rule="nonzero"/><g clip-path="url(#295dcdbba2)"><path stroke-linecap="butt" transform="matrix(0.480733, 0, 0, 0.480733, 24.006549, 23.539576)" fill="none" stroke-linejoin="miter" d="M 269.529078 135.631597 C 336.882251 135.631597 399.457566 145.292946 446.642977 161.536039 C 503.481612 181.110631 538.437982 210.769103 538.437982 237.632367 C 538.437982 265.616964 501.39333 297.136201 440.353756 317.360842 C 394.200297 332.645112 333.469495 340.632586 269.529078 340.632586 C 203.979791 340.632586 141.900138 333.140775 95.234766 317.190204 C 36.185966 297.006191 0.620175 265.088799 0.620175 237.632367 C 0.620175 210.988495 33.992051 181.557539 90.034376 162.01545 C 137.390425 145.504212 201.509606 135.631597 269.529078 135.631597 Z M 269.529078 135.631597 " stroke="#00d8ff" stroke-width="24" stroke-opacity="1" stroke-miterlimit="4"/></g><g clip-path="url(#0f3dfddc87)"><path stroke-linecap="butt" transform="matrix(0.480733, 0, 0, 0.480733, 24.006549, 23.539576)" fill="none" stroke-linejoin="miter" d="M 180.740549 186.920441 C 214.388696 128.570443 254.017291 79.199243 291.663237 46.436788 C 337.012261 6.978831 380.159244 -8.476078 403.430989 4.939303 C 427.677806 18.923476 436.469715 66.75081 423.493117 129.740531 C 413.693633 177.356599 390.259376 233.94334 358.317608 289.335617 C 325.571403 346.125498 288.071718 396.154872 250.937685 428.608554 C 203.96354 469.675382 158.541385 484.537121 134.757728 470.821093 C 111.680999 457.519471 102.856587 413.901202 113.923667 355.591832 C 123.284368 306.318139 146.759252 245.847357 180.724298 186.928567 Z M 180.740549 186.920441 " stroke="#00d8ff" stroke-width="24" stroke-opacity="1" stroke-miterlimit="4"/></g><g clip-path="url(#517279f62c)"><path stroke-linecap="butt" transform="matrix(0.480733, 0, 0, 0.480733, 24.006549, 23.539576)" fill="none" stroke-linejoin="miter" d="M 180.821805 289.481878 C 147.076151 231.196884 124.096929 172.196838 114.50871 123.231918 C 102.96222 64.231871 111.128457 19.11849 134.375824 5.662482 C 158.598265 -8.362319 204.426699 7.90515 252.514053 50.5971 C 288.868028 82.880144 326.205201 131.438783 358.236352 186.766055 C 391.080063 243.499056 415.692533 300.979614 425.272625 349.351364 C 437.387908 410.561577 427.580298 457.332582 403.821018 471.089238 C 380.76054 484.439614 338.564252 470.30918 293.580881 431.590653 C 255.561157 398.876951 214.892484 348.335663 180.81368 289.473752 Z M 180.821805 289.481878 " stroke="#00d8ff" stroke-width="24" stroke-opacity="1" stroke-miterlimit="4"/></g><path fill="#545454" d="M 421.28125 199.394531 L 391.722656 154.734375 C 406.660156 153.417969 420.121094 142.589844 420.121094 122.816406 C 420.121094 102.691406 405.84375 89.8125 385.808594 89.8125 L 341.816406 89.8125 L 341.816406 199.3125 L 355.445312 199.3125 L 355.445312 155.804688 L 377.28125 155.804688 L 405.191406 199.3125 Z M 384.179688 143.902344 L 355.453125 143.902344 L 355.453125 102.039062 L 384.179688 102.039062 C 397.15625 102.039062 406.015625 110.574219 406.015625 122.890625 C 406.015625 135.207031 397.148438 143.917969 384.179688 143.917969 Z M 472.011719 201.359375 C 484.988281 201.359375 495.652344 197.089844 503.535156 189.214844 L 497.625 181.164062 C 491.378906 187.570312 482.191406 191.179688 473.164062 191.179688 C 456.09375 191.179688 445.582031 178.703125 444.597656 163.769531 L 508.78125 163.769531 L 508.78125 160.648438 C 508.78125 136.847656 494.660156 118.125 470.6875 118.125 C 448.03125 118.125 431.621094 136.679688 431.621094 159.660156 C 431.621094 184.453125 448.53125 201.296875 472.003906 201.296875 Z M 496.644531 154.726562 L 444.605469 154.726562 C 445.261719 142.585938 453.625 128.289062 470.542969 128.289062 C 488.605469 128.289062 496.480469 142.902344 496.644531 154.726562 Z M 590.558594 199.386719 L 590.558594 144.882812 C 590.558594 125.675781 576.609375 118.117188 559.859375 118.117188 C 546.882812 118.117188 536.710938 122.386719 528.175781 131.253906 L 533.921875 139.789062 C 540.980469 132.238281 548.703125 128.789062 558.222656 128.789062 C 569.714844 128.789062 578.253906 134.863281 578.253906 145.535156 L 578.253906 159.8125 C 571.851562 152.425781 562.824219 148.976562 551.984375 148.976562 C 538.523438 148.976562 524.230469 157.351562 524.230469 175.082031 C 524.230469 192.316406 538.507812 201.351562 551.984375 201.351562 C 562.65625 201.351562 571.691406 197.578125 578.253906 190.351562 L 578.253906 199.375 Z M 556.417969 192.488281 C 544.925781 192.488281 536.878906 185.273438 536.878906 175.253906 C 536.878906 165.074219 544.925781 157.851562 556.417969 157.851562 C 565.121094 157.851562 573.488281 161.132812 578.253906 167.703125 L 578.253906 182.644531 C 573.496094 189.207031 565.121094 192.496094 556.417969 192.496094 Z M 650.09375 201.359375 C 664.542969 201.359375 673.078125 195.445312 679.15625 187.570312 L 670.945312 180.019531 C 665.695312 187.078125 658.964844 190.359375 650.824219 190.359375 C 633.914062 190.359375 623.414062 177.222656 623.414062 159.660156 C 623.414062 142.097656 633.921875 129.128906 650.824219 129.128906 C 659.03125 129.128906 665.761719 132.253906 670.945312 139.46875 L 679.15625 131.917969 C 673.082031 124.035156 664.542969 118.132812 650.09375 118.132812 C 626.453125 118.132812 610.527344 136.195312 610.527344 159.667969 C 610.527344 183.308594 626.453125 201.300781 650.09375 201.300781 Z M 716.429688 201.359375 C 723.648438 201.359375 728.089844 199.222656 731.210938 196.273438 L 727.601562 187.078125 C 725.957031 188.882812 722.746094 190.359375 719.226562 190.359375 C 713.816406 190.359375 711.179688 186.09375 711.179688 180.179688 L 711.179688 130.925781 L 727.277344 130.925781 L 727.277344 120.09375 L 711.179688 120.09375 L 711.179688 98.425781 L 698.863281 98.425781 L 698.863281 120.09375 L 685.726562 120.09375 L 685.726562 130.933594 L 698.863281 130.933594 L 698.863281 182.816406 C 698.863281 194.640625 704.773438 201.371094 716.429688 201.371094 Z M 716.429688 201.359375 " fill-opacity="1" fill-rule="evenodd"/></g></g></g></svg>