<svg xmlns="http://www.w3.org/2000/svg" xmlns:xlink="http://www.w3.org/1999/xlink" width="1080" zoomAndPan="magnify" viewBox="0 0 810 809.999993" height="1080" preserveAspectRatio="xMidYMid meet" version="1.0"><defs><filter x="0%" y="0%" width="100%" height="100%" id="563189c02e"><feColorMatrix values="0 0 0 0 1 0 0 0 0 1 0 0 0 0 1 0 0 0 1 0" color-interpolation-filters="sRGB"/></filter><mask id="b7d7f2f52a"><g filter="url(#563189c02e)"><rect x="-81" width="972" fill="#000000" y="-80.999999" height="971.999992" fill-opacity="0.5"/></g></mask><clipPath id="3d9db01070"><rect x="0" width="558" y="0" height="513"/></clipPath></defs><g mask="url(#b7d7f2f52a)"><g transform="matrix(1, 0, 0, 1, 99, 141)"><g clip-path="url(#3d9db01070)"><path fill="#6c4eb0" d="M 200.460938 73.066406 C 220.3125 48.003906 257.699219 35.628906 283.183594 34.988281 C 354.644531 33.621094 384.4375 123.523438 386.734375 159.265625 L 419.8125 169.28125 C 412.195312 59.71875 344.730469 2.246094 280.179688 2.246094 C 219.648438 2.226562 163.757812 46.660156 141.230469 111.808594 C 110.46875 198.667969 130.652344 282.175781 168.371094 349.003906 C 165.082031 353.347656 163.09375 361.003906 163.757812 368.351562 C 164.398438 388.40625 181.269531 405.109375 201.476562 405.109375 L 202.800781 405.109375 C 223.976562 404.445312 240.1875 386.75 239.195312 365.683594 C 239.195312 345.628906 221.992188 328.96875 201.808594 328.96875 L 200.460938 328.96875 C 199.132812 328.96875 197.167969 328.96875 195.492188 329.609375 C 168.042969 282.835938 156.449219 232.710938 160.777344 178.636719 C 163.402344 137.863281 176.652344 102.453125 200.460938 73.066406 Z M 200.460938 73.066406 " fill-opacity="1" fill-rule="nonzero"/><path fill="#6c4eb0" d="M 41.019531 452.253906 C 63.191406 485.65625 108.527344 507.015625 158.148438 507.015625 C 171.375 507.015625 185.289062 506.042969 198.847656 502.691406 C 284.882812 485.988281 350.074219 433.878906 387.460938 357.054688 L 387.769531 356.371094 C 406.960938 354.695312 421.84375 337.640625 420.875 317.253906 C 419.859375 296.871094 403.316406 280.519531 383.15625 280.519531 L 381.808594 280.519531 C 360.984375 281.203125 344.753906 298.898438 345.414062 319.96875 C 346.078125 330.648438 350.40625 339.339844 356.324219 345.671875 C 333.179688 391.121094 298.441406 424.5 245.820312 452.585938 C 210.417969 471.273438 173.03125 478.3125 136.640625 473.304688 C 106.207031 468.980469 82.402344 455.234375 67.828125 433.214844 C 46.007812 399.789062 44.019531 363.742188 62.195312 327.667969 C 75.46875 301.613281 95.296875 282.574219 108.546875 273.195312 C 105.234375 264.527344 101.261719 249.832031 99.273438 238.824219 C 1.289062 309.621094 11.25 406.476562 41.019531 452.253906 Z M 41.019531 452.253906 " fill-opacity="1" fill-rule="nonzero"/><path fill="#6c4eb0" d="M 538.621094 437.515625 C 558.453125 397.429688 556.816406 329.960938 506.179688 272.160156 L 505.871094 272.820312 C 454.617188 212.015625 379.15625 178.613281 293.097656 178.613281 L 281.835938 178.613281 C 276.25 166.257812 263.351562 158.558594 248.777344 158.558594 L 247.785156 158.558594 C 226.960938 158.558594 210.726562 176.628906 211.414062 197.652344 C 212.074219 217.6875 228.945312 234.410156 249.132812 234.410156 L 250.765625 234.410156 C 265.671875 233.75 278.566406 224.371094 283.847656 211.023438 L 296.101562 211.023438 C 347.09375 211.023438 395.367188 226.046875 439.402344 255.4375 C 473.121094 277.828125 497.304688 307.214844 510.863281 342.296875 C 522.742188 371.019531 522.101562 399.085938 509.867188 422.492188 C 491.011719 459.226562 459.230469 478.621094 417.230469 478.621094 C 390.75 478.621094 364.957031 470.257812 351.707031 464.257812 C 343.78125 470.898438 330.53125 481.929688 320.925781 488.636719 C 350.03125 501.960938 379.488281 509.660156 407.933594 509.660156 C 472.460938 509.660156 520.402344 472.949219 538.621094 437.515625 Z M 538.621094 437.515625 " fill-opacity="1" fill-rule="nonzero"/></g></g></g></svg>