<svg xmlns="http://www.w3.org/2000/svg" xmlns:xlink="http://www.w3.org/1999/xlink" width="1080" zoomAndPan="magnify" viewBox="0 0 810 809.999993" height="1080" preserveAspectRatio="xMidYMid meet" version="1.0"><defs><filter x="0%" y="0%" width="100%" height="100%" id="913ed3b4e2"><feColorMatrix values="0 0 0 0 1 0 0 0 0 1 0 0 0 0 1 0 0 0 1 0" color-interpolation-filters="sRGB"/></filter><mask id="dc239c5966"><g filter="url(#913ed3b4e2)"><rect x="-81" width="972" fill="#000000" y="-80.999999" height="971.999992" fill-opacity="0.5"/></g></mask><clipPath id="a552efa64e"><path d="M 1.144531 0.929688 L 544.894531 0.929688 L 544.894531 577.386719 L 1.144531 577.386719 Z M 1.144531 0.929688 " clip-rule="nonzero"/></clipPath><clipPath id="df2de99271"><rect x="0" width="546" y="0" height="579"/></clipPath></defs><g mask="url(#dc239c5966)"><g transform="matrix(1, 0, 0, 1, 132, 134)"><g clip-path="url(#df2de99271)"><g clip-path="url(#a552efa64e)"><path fill="#000000" d="M 1.117188 105.460938 C 1.117188 82.066406 15.933594 60.222656 41.550781 42.683594 C 78.421875 17.453125 137.878906 0.925781 204.941406 0.925781 C 272.003906 0.925781 331.46875 17.453125 368.328125 42.683594 C 393.957031 60.222656 408.773438 82.066406 408.773438 105.460938 L 408.773438 278.597656 C 419.523438 281.679688 429.859375 286.132812 439.496094 291.816406 L 469.496094 267.820312 C 471.085938 266.542969 473.355469 266.503906 475 267.726562 C 488.375 277.679688 500.226562 289.53125 510.195312 302.914062 C 511.417969 304.554688 511.378906 306.8125 510.101562 308.414062 C 510.101562 308.414062 486.085938 338.394531 486.085938 338.394531 C 492.398438 349.078125 497.175781 360.59375 500.269531 372.609375 L 538.445312 376.84375 C 540.488281 377.070312 542.113281 378.640625 542.40625 380.660156 C 544.828125 397.167969 544.828125 413.925781 542.40625 430.421875 C 542.113281 432.453125 540.488281 434.027344 538.445312 434.25 C 538.445312 434.25 500.269531 438.476562 500.269531 438.476562 C 497.175781 450.488281 492.398438 462.015625 486.085938 472.691406 L 510.101562 502.679688 C 511.378906 504.273438 511.417969 506.539062 510.195312 508.183594 C 500.226562 521.554688 488.375 533.40625 475 543.367188 C 473.355469 544.589844 471.085938 544.550781 469.496094 543.273438 C 469.496094 543.273438 439.496094 519.265625 439.496094 519.265625 C 428.816406 525.574219 417.289062 530.351562 405.269531 533.445312 L 401.042969 571.609375 C 400.820312 573.652344 399.246094 575.273438 397.214844 575.570312 C 380.714844 577.988281 363.949219 577.988281 347.449219 575.570312 C 345.417969 575.273438 343.84375 573.652344 343.621094 571.609375 C 343.621094 571.609375 339.382812 533.445312 339.382812 533.445312 C 327.363281 530.351562 315.847656 525.574219 305.15625 519.265625 L 275.167969 543.273438 C 273.566406 544.550781 271.308594 544.589844 269.664062 543.367188 C 256.542969 533.597656 244.882812 522.011719 235.039062 508.957031 C 225.226562 509.691406 215.171875 510.082031 204.941406 510.082031 C 137.878906 510.082031 78.421875 493.554688 41.550781 468.324219 C 15.933594 450.785156 1.117188 428.941406 1.117188 405.546875 Z M 399.757812 105.460938 C 399.757812 84.6875 385.992188 65.6875 363.242188 50.117188 C 327.539062 25.679688 269.890625 9.933594 204.941406 9.933594 C 140 9.933594 82.34375 25.679688 46.648438 50.117188 C 23.898438 65.6875 10.125 84.6875 10.125 105.460938 C 10.125 126.230469 23.898438 145.230469 46.648438 160.804688 C 82.34375 185.242188 140 200.980469 204.941406 200.980469 C 269.890625 200.980469 327.539062 185.242188 363.242188 160.804688 C 385.992188 145.230469 399.757812 126.230469 399.757812 105.460938 Z M 399.757812 205.492188 L 399.757812 136.484375 C 392.855469 148.035156 382.175781 158.761719 368.328125 168.234375 C 331.46875 193.46875 272.003906 209.996094 204.941406 209.996094 C 137.878906 209.996094 78.421875 193.46875 41.550781 168.234375 C 27.714844 158.761719 17.027344 148.035156 10.125 136.484375 L 10.125 148.996094 C 16.792969 157.726562 25.675781 165.886719 36.496094 173.300781 C 73.355469 198.53125 132.8125 215.046875 199.886719 215.046875 C 204.347656 215.046875 208.78125 214.976562 213.171875 214.832031 L 213.171875 242.65625 C 209.464844 239.902344 204.859375 238.269531 199.886719 238.269531 C 187.570312 238.269531 177.574219 248.261719 177.574219 260.5625 C 177.574219 272.871094 187.570312 282.855469 199.886719 282.855469 C 204.859375 282.855469 209.464844 281.222656 213.171875 278.464844 L 213.171875 300.933594 C 221.214844 300.757812 229.140625 300.351562 236.898438 299.71875 C 246.34375 287.640625 257.359375 276.882812 269.664062 267.726562 C 271.308594 266.503906 273.566406 266.542969 275.167969 267.820312 C 275.167969 267.820312 292.730469 281.863281 300.96875 288.46875 C 315.070312 284.5 328.097656 279.691406 339.769531 274.15625 L 343.621094 239.472656 C 343.84375 237.441406 345.417969 235.808594 347.449219 235.511719 C 361.652344 233.441406 376.046875 233.144531 390.3125 234.644531 C 396.40625 225.480469 399.757812 215.679688 399.757812 205.492188 Z M 399.757812 236.789062 L 399.757812 236.554688 C 399.726562 236.605469 399.695312 236.65625 399.664062 236.707031 C 399.695312 236.738281 399.726562 236.757812 399.757812 236.789062 Z M 236.890625 499.769531 C 242.914062 492.25 258.574219 472.691406 258.574219 472.691406 C 252.265625 462.015625 247.488281 450.488281 244.394531 438.476562 L 206.207031 434.25 C 204.175781 434.027344 202.539062 432.453125 202.246094 430.421875 C 199.84375 414.03125 199.835938 397.371094 202.203125 380.96875 C 201.4375 381.058594 200.671875 381.109375 199.886719 381.109375 C 189.207031 381.109375 180.535156 372.445312 180.535156 361.769531 C 180.535156 351.101562 189.207031 342.433594 199.886719 342.433594 C 200.925781 342.433594 201.957031 342.527344 202.960938 342.679688 C 196.648438 343.894531 191.882812 349.449219 191.882812 356.101562 C 191.882812 363.65625 198.007812 369.78125 205.542969 369.78125 C 212.210938 369.78125 217.765625 365.003906 218.980469 358.695312 C 219.132812 359.695312 219.226562 360.726562 219.226562 361.769531 C 219.226562 367.453125 216.765625 372.566406 212.851562 376.097656 C 223.789062 374.894531 244.394531 372.609375 244.394531 372.609375 C 247.488281 360.59375 252.265625 349.078125 258.574219 338.394531 L 234.960938 308.902344 C 225.167969 309.640625 215.140625 310.015625 204.941406 310.015625 C 137.878906 310.015625 78.421875 293.492188 41.550781 268.269531 C 27.714844 258.796875 17.027344 248.058594 10.125 236.511719 L 10.125 249.027344 C 16.792969 257.753906 25.675781 265.921875 36.496094 273.320312 C 73.355469 298.554688 132.8125 315.078125 199.886719 315.078125 C 204.347656 315.078125 208.78125 315.007812 213.171875 314.863281 L 213.171875 343.710938 C 209.464844 340.945312 204.859375 339.3125 199.886719 339.3125 C 187.570312 339.3125 177.574219 349.304688 177.574219 361.605469 C 177.574219 373.261719 186.539062 382.835938 197.9375 383.816406 C 197.546875 384.378906 197.292969 385.019531 197.191406 385.722656 C 196.445312 390.777344 195.933594 395.851562 195.648438 400.933594 C 195.667969 400.933594 195.679688 400.933594 195.691406 400.933594 C 195.597656 403.136719 195.484375 406.3125 195.453125 409.9375 C 132.292969 408.457031 76.675781 392.328125 41.550781 368.289062 C 27.714844 358.816406 17.027344 348.089844 10.125 336.535156 L 10.125 349.050781 C 16.792969 357.785156 25.675781 365.953125 36.496094 373.351562 C 72.539062 398.023438 130.199219 414.375 195.433594 415.082031 C 195.609375 421.910156 196.199219 428.71875 197.191406 435.484375 C 197.488281 437.515625 199.109375 439.089844 201.152344 439.3125 L 213.171875 440.640625 L 213.171875 444.753906 C 209.464844 441.996094 204.859375 440.355469 199.886719 440.355469 C 187.570312 440.355469 177.574219 450.347656 177.574219 462.65625 C 177.574219 474.957031 187.570312 484.949219 199.886719 484.949219 C 204.859375 484.949219 209.464844 483.316406 213.171875 480.550781 L 213.171875 500.984375 C 221.214844 500.824219 229.128906 500.414062 236.890625 499.769531 Z M 347.46875 283.4375 C 346.867188 284.539062 345.816406 285.367188 344.539062 285.660156 C 331.316406 288.722656 318.707031 293.949219 307.1875 301.125 C 305.566406 302.136719 303.480469 302.015625 301.992188 300.820312 C 301.992188 300.820312 272.289062 277.046875 272.289062 277.046875 C 261.648438 285.324219 252.070312 294.890625 243.792969 305.523438 L 245.546875 307.71875 C 252.296875 299.613281 259.84375 292.195312 268.070312 285.570312 C 274.839844 290.988281 295.671875 307.660156 295.671875 307.660156 C 298.285156 309.75 301.929688 309.964844 304.777344 308.1875 C 315.96875 301.21875 328.242188 296.132812 341.097656 293.152344 C 344.355469 292.398438 346.785156 289.671875 347.152344 286.34375 Z M 267.613281 340.851562 C 260.566406 352.246094 255.441406 364.707031 252.410156 377.761719 C 251.980469 379.621094 250.417969 381.007812 248.519531 381.210938 C 248.519531 381.210938 210.699219 385.40625 210.699219 385.40625 C 210.402344 387.808594 210.15625 390.214844 209.964844 392.625 C 218.988281 391.625 244.691406 388.777344 244.691406 388.777344 C 248.007812 388.410156 250.746094 385.980469 251.5 382.722656 C 254.480469 369.871094 259.554688 357.601562 266.539062 346.414062 C 267.601562 344.722656 267.949219 342.730469 267.613281 340.851562 Z M 267.601562 475.824219 C 267.59375 475.835938 267.582031 475.84375 267.570312 475.867188 C 267.570312 475.867188 243.792969 505.558594 243.792969 505.558594 C 244.363281 506.292969 244.945312 507.027344 245.527344 507.753906 C 252.0625 499.585938 266.007812 482.171875 266.007812 482.171875 C 267.46875 480.355469 268.011719 478.03125 267.601562 475.824219 Z M 270.09375 532.300781 C 270.820312 532.894531 271.554688 533.464844 272.289062 534.039062 L 301.992188 510.265625 C 302 510.253906 302.011719 510.242188 302.03125 510.234375 C 299.828125 509.824219 297.5 510.375 295.671875 511.835938 Z M 385.257812 567.863281 C 387.667969 567.671875 390.078125 567.425781 392.476562 567.128906 L 396.664062 529.320312 C 396.878906 527.421875 398.265625 525.859375 400.125 525.433594 C 413.171875 522.402344 425.652344 517.265625 437.046875 510.234375 C 435.167969 509.898438 433.175781 510.242188 431.480469 511.296875 C 420.28125 518.277344 408.015625 523.359375 395.164062 526.339844 C 391.90625 527.097656 389.476562 529.820312 389.105469 533.148438 Z M 470.1875 532.292969 C 471.558594 533.382812 472.375 534.039062 472.375 534.039062 C 483.011719 525.757812 492.582031 516.195312 500.871094 505.558594 L 477.089844 475.867188 C 475.898438 474.375 475.773438 472.28125 476.785156 470.671875 C 483.964844 459.15625 489.191406 446.539062 492.253906 433.332031 C 492.550781 432.054688 493.378906 431.003906 494.480469 430.390625 C 492.664062 430.597656 491.570312 430.71875 491.570312 430.71875 C 488.242188 431.085938 485.515625 433.515625 484.757812 436.769531 C 481.777344 449.621094 476.691406 461.890625 469.710938 473.078125 C 467.941406 475.917969 468.15625 479.570312 470.25 482.171875 L 492.347656 509.773438 C 485.71875 517.992188 478.296875 525.535156 470.1875 532.292969 Z M 526.746094 426.484375 C 531.003906 426.011719 533.964844 425.6875 533.964844 425.6875 C 535.628906 412.304688 535.628906 398.78125 533.964844 385.40625 L 496.144531 381.210938 C 494.246094 381.007812 492.683594 379.621094 492.253906 377.761719 C 489.191406 364.542969 483.964844 351.929688 476.785156 340.425781 C 475.773438 338.800781 475.898438 336.71875 477.089844 335.230469 C 477.089844 335.230469 500.871094 305.523438 500.871094 305.523438 C 492.582031 294.890625 483.011719 285.324219 472.375 277.046875 L 442.671875 300.820312 C 441.179688 302.015625 439.097656 302.136719 437.472656 301.125 C 426.867188 294.511719 415.308594 289.550781 403.21875 286.417969 C 403.15625 286.40625 403.105469 286.398438 403.054688 286.375 C 402.074219 286.132812 401.105469 285.886719 400.125 285.660156 C 398.265625 285.234375 396.878906 283.671875 396.664062 281.773438 L 392.476562 243.964844 C 392.3125 243.945312 392.140625 243.921875 391.964844 243.902344 C 391.945312 243.894531 391.914062 243.894531 391.894531 243.894531 C 378.703125 242.300781 365.367188 242.320312 352.1875 243.964844 L 351.390625 251.171875 C 362.632812 249.988281 373.964844 249.996094 385.207031 251.210938 C 385.207031 251.210938 389.105469 286.34375 389.105469 286.34375 C 389.476562 289.671875 391.90625 292.398438 395.164062 293.152344 C 396.113281 293.378906 397.050781 293.601562 397.992188 293.847656 C 398.050781 293.867188 398.113281 293.878906 398.175781 293.898438 C 409.9375 296.941406 421.167969 301.757812 431.480469 308.1875 C 434.320312 309.964844 437.964844 309.75 440.578125 307.660156 L 468.1875 285.570312 C 477.082031 292.734375 485.179688 300.828125 492.347656 309.71875 L 491.128906 311.242188 C 484.789062 319.152344 470.25 337.320312 470.25 337.320312 C 468.15625 339.933594 467.941406 343.578125 469.710938 346.414062 C 476.691406 357.601562 481.777344 369.871094 484.757812 382.722656 C 485.515625 385.980469 488.242188 388.410156 491.570312 388.777344 L 526.714844 392.664062 C 527.929688 403.902344 527.941406 415.246094 526.746094 426.484375 Z M 372.332031 325.910156 C 328.363281 325.910156 292.667969 361.59375 292.667969 405.546875 C 292.667969 449.5 328.363281 485.175781 372.332031 485.175781 C 416.296875 485.175781 451.992188 449.5 451.992188 405.546875 C 451.992188 361.59375 416.296875 325.910156 372.332031 325.910156 Z M 372.332031 331.6875 C 413.101562 331.6875 446.203125 364.789062 446.203125 405.546875 C 446.203125 446.304688 413.101562 479.398438 372.332031 479.398438 C 331.5625 479.398438 298.457031 446.304688 298.457031 405.546875 C 298.457031 364.789062 331.5625 331.6875 372.332031 331.6875 Z M 351.011719 364.941406 C 357.445312 361.777344 364.683594 360 372.332031 360 C 385.289062 360 397.0625 365.105469 405.75 373.402344 C 414.980469 382.214844 420.738281 394.644531 420.738281 408.40625 C 420.738281 435.109375 399.050781 456.796875 372.332031 456.796875 C 358.566406 456.796875 346.140625 451.042969 337.320312 441.8125 C 335.757812 440.179688 333.175781 440.121094 331.539062 441.671875 C 329.917969 443.234375 329.855469 445.816406 331.40625 447.449219 C 341.71875 458.238281 356.25 464.964844 372.332031 464.964844 C 403.554688 464.964844 428.90625 439.621094 428.90625 408.40625 C 428.90625 392.316406 422.1875 377.792969 411.386719 367.492188 C 401.238281 357.796875 387.472656 351.835938 372.332031 351.835938 C 361.058594 351.835938 350.550781 355.144531 341.71875 360.828125 C 341.71875 358.980469 341.71875 352.296875 341.71875 352.296875 L 333.550781 352.296875 L 333.550781 369.023438 C 333.550781 370.660156 334.523438 372.097656 335.960938 372.75 C 336.480469 372.984375 337.054688 373.109375 337.636719 373.109375 L 354.382812 373.109375 C 356.628906 373.109375 358.464844 371.28125 358.464844 369.023438 C 358.464844 366.769531 356.628906 364.941406 354.382812 364.941406 Z M 218.980469 257.480469 C 219.132812 258.488281 219.226562 259.511719 219.226562 260.5625 C 219.226562 271.226562 210.554688 279.894531 199.886719 279.894531 C 189.207031 279.894531 180.535156 271.226562 180.535156 260.5625 C 180.535156 249.894531 189.207031 241.230469 199.886719 241.230469 C 200.925781 241.230469 201.957031 241.3125 202.960938 241.472656 C 196.648438 242.6875 191.882812 248.242188 191.882812 254.898438 C 191.882812 262.441406 198.007812 268.5625 205.542969 268.5625 C 212.210938 268.5625 217.765625 263.789062 218.980469 257.480469 Z M 218.980469 459.902344 C 219.132812 460.902344 219.226562 461.933594 219.226562 462.984375 C 219.226562 473.652344 210.554688 482.316406 199.886719 482.316406 C 189.207031 482.316406 180.535156 473.652344 180.535156 462.984375 C 180.535156 452.316406 189.207031 443.652344 199.886719 443.652344 C 200.925781 443.652344 201.957031 443.734375 202.960938 443.894531 C 196.648438 445.101562 191.882812 450.652344 191.882812 457.320312 C 191.882812 464.863281 198.007812 470.988281 205.542969 470.988281 C 212.210938 470.988281 217.765625 466.210938 218.980469 459.902344 Z M 218.980469 459.902344 " fill-opacity="1" fill-rule="evenodd"/></g></g></g></g></svg>